<svg xmlns="http://www.w3.org/2000/svg" viewBox="0 0 105 105" preserveAspectRatio="xMidYMid meet" version="1.2" baseProfile="tiny-ps" xml:space="preserve"><title>Ada Computer Science</title><path d="M0 0h105v105H0z" fill="#fff"/><path d="M98.6 1.8H6.4c-2.5 0-4.6 2.1-4.6 4.6v92.2c0 2.5 2.1 4.6 4.6 4.6h92.2c2.5 0 4.6-2.1 4.6-4.6V6.4c0-2.5-2.1-4.6-4.6-4.6z" fill="#0affe7"/><path d="M85.4 43.3v4.6l-.3-.5c-.7-1.3-1.8-2.4-3.2-3.2-1.4-.9-3.1-1.3-5.1-1.3-1.9 0-3.8.4-5.4 1.4-1.6.9-2.9 2.3-3.8 4-.9 1.8-1.4 3.8-1.4 6.1s.5 4.3 1.4 6.1 2.2 3.2 3.8 4.2 3.4 1.5 5.4 1.5c1.9 0 3.6-.4 5.1-1.3s2.6-2 3.3-3.3l.3-.5v4.7H89V43.3zm-1 15.8c-.7 1.3-1.7 2.3-2.9 3-1.2.6-2.6 1-4 1-1.5 0-2.8-.3-4-1s-2.2-1.7-2.9-3-1.1-2.8-1.1-4.6.4-3.3 1.1-4.6c.8-1.3 1.7-2.3 2.9-3s2.6-1 4-1c1.5 0 2.8.3 4 1s2.2 1.7 2.9 3 1 2.8 1.1 4.6c0 1.7-.4 3.3-1.1 4.6zM59.7 35.2v12.7l-.3-.5c-.7-1.3-1.9-2.4-3.4-3.2S52.8 43 51.1 43c-2 0-3.9.4-5.5 1.4-1.6.9-2.9 2.3-3.8 4-.9 1.8-1.4 3.8-1.4 6.1s.5 4.3 1.4 6.1c.1.1.1.2.2.3l-.1.1-1.7 1.3c-.6.5-1.3.7-2.1.7-.6 0-1.1-.1-1.6-.4a6.42 6.42 0 0 1-1.3-1l-.9-1.3c-.2-.5-.5-1-.7-1.4.8-1.2 1.5-2.4 2.2-3.7s1.3-2.6 1.8-3.9l1.3-3.8.8-3.4h-4.9c0 1.5-.2 3.3-.6 5.3-.5 2-1.1 4.1-2 6.2-.2-.6-.4-1.4-.6-2.2l-.6-2.8-1-3.3c-.4-.9-.9-1.7-1.5-2.4s-1.3-1.2-2.2-1.5-2-.5-3.2-.5c-1.5 0-3 .3-4.3.9-1.4.5-2.5 1.4-3.5 2.5s-1.7 2.5-2.3 4.1c-.5 1.6-.8 3.5-.8 5.6a10.7 10.7 0 0 0 .8 4.1c.6 1.2 1.3 2.3 2.3 3.2s2.1 1.6 3.4 2.1 2.7.8 4.2.8 3-.4 4.4-1.2 2.7-1.8 3.9-3.2l.7 1.2c.5.8 1 1.6 1.7 2.2.7.7 1.4 1 2.2 1 .6 0 1.2-.2 1.8-.5s1.2-.7 1.8-1.2l1.7-1.5c.6-.5 1-1 1.4-1.4.8 1.3 1.9 2.3 3.2 3.1 1.6 1 3.4 1.5 5.4 1.5 1.9 0 3.7-.4 5.1-1.3 1.5-.9 2.6-2 3.3-3.3l.3-.5v4.7h3.5l-.1-30.6zM27.3 62.9c-1.2 1-2.4 1.5-3.6 1.5-2 0-3.6-.8-4.6-2.5-1.1-1.6-1.6-3.8-1.6-6.6a27.66 27.66 0 0 1 .3-4.2c.2-1.3.6-2.4 1-3.4s1-1.7 1.7-2.3c.7-.5 1.5-.8 2.5-.8 1.2 0 2.3.4 3.3 1.4s1.8 2.7 2.3 5.3l1 4.3c.2 1.4.5 2.6.8 3.6-.9 1.5-2 2.7-3.1 3.7zm31.4-3.8c-.7 1.3-1.7 2.3-2.9 3-1.2.6-2.5 1-4 1s-2.8-.3-4-1-2.2-1.7-2.9-3-1.1-2.8-1.1-4.6.4-3.3 1.1-4.6c.8-1.3 1.7-2.3 2.9-3s2.6-1 4-1c1.5 0 2.8.3 4 1s2.2 1.7 2.9 3c.8 1.3 1.1 2.8 1.1 4.6 0 1.7-.4 3.3-1.1 4.6z"/></svg>