<?xml version="1.0" encoding="UTF-8" standalone="no"?>
<!-- Created with Inkscape (http://www.inkscape.org/) -->

<svg
   xmlns:dc="http://purl.org/dc/elements/1.1/"
   xmlns:cc="http://creativecommons.org/ns#"
   xmlns:rdf="http://www.w3.org/1999/02/22-rdf-syntax-ns#"
   xmlns:svg="http://www.w3.org/2000/svg"
   xmlns="http://www.w3.org/2000/svg"
   xmlns:sodipodi="http://sodipodi.sourceforge.net/DTD/sodipodi-0.dtd"
   xmlns:inkscape="http://www.inkscape.org/namespaces/inkscape"
   width="423.67651mm"
   height="449.07413mm"
   viewBox="0 0 1501.216 1591.2075"
   id="svg2"
   version="1.1"
   inkscape:version="0.91 r13725"
   sodipodi:docname="snowflake.svg"
   inkscape:export-filename="C:\Users\jps79\Desktop\isaac_snowflake.png"
   inkscape:export-xdpi="90"
   inkscape:export-ydpi="90">
  <title
     id="title5082">isaac_snowflake</title>
  <defs
     id="defs4">
    <clipPath
       clipPathUnits="userSpaceOnUse"
       id="clipPath4967-8">
      <rect
         style="fill:none;fill-opacity:1;stroke:#666666;stroke-width:1.10000002;stroke-linecap:square;stroke-linejoin:miter;stroke-miterlimit:4;stroke-dasharray:3.3, 1.1;stroke-dashoffset:0;stroke-opacity:1"
         id="rect4969-3"
         width="301.07144"
         height="158.92857"
         x="677.85712"
         y="87.513611" />
    </clipPath>
    <clipPath
       clipPathUnits="userSpaceOnUse"
       id="clipPath4967-8-3">
      <rect
         style="fill:none;fill-opacity:1;stroke:#666666;stroke-width:1.10000002;stroke-linecap:square;stroke-linejoin:miter;stroke-miterlimit:4;stroke-dasharray:3.3, 1.1;stroke-dashoffset:0;stroke-opacity:1"
         id="rect4969-3-6"
         width="301.07144"
         height="158.92857"
         x="677.85712"
         y="87.513611" />
    </clipPath>
    <clipPath
       clipPathUnits="userSpaceOnUse"
       id="clipPath4967-8-7">
      <rect
         style="fill:none;fill-opacity:1;stroke:#666666;stroke-width:1.10000002;stroke-linecap:square;stroke-linejoin:miter;stroke-miterlimit:4;stroke-dasharray:3.3, 1.1;stroke-dashoffset:0;stroke-opacity:1"
         id="rect4969-3-7"
         width="301.07144"
         height="158.92857"
         x="677.85712"
         y="87.513611" />
    </clipPath>
    <clipPath
       clipPathUnits="userSpaceOnUse"
       id="clipPath4967-8-2">
      <rect
         style="fill:none;fill-opacity:1;stroke:#666666;stroke-width:1.10000002;stroke-linecap:square;stroke-linejoin:miter;stroke-miterlimit:4;stroke-dasharray:3.3, 1.1;stroke-dashoffset:0;stroke-opacity:1"
         id="rect4969-3-8"
         width="301.07144"
         height="158.92857"
         x="677.85712"
         y="87.513611" />
    </clipPath>
    <clipPath
       clipPathUnits="userSpaceOnUse"
       id="clipPath4967-8-4">
      <rect
         style="fill:none;fill-opacity:1;stroke:#666666;stroke-width:1.10000002;stroke-linecap:square;stroke-linejoin:miter;stroke-miterlimit:4;stroke-dasharray:3.3, 1.1;stroke-dashoffset:0;stroke-opacity:1"
         id="rect4969-3-4"
         width="301.07144"
         height="158.92857"
         x="677.85712"
         y="87.513611" />
    </clipPath>
  </defs>
  <sodipodi:namedview
     id="base"
     pagecolor="#ffffff"
     bordercolor="#666666"
     borderopacity="1.0"
     inkscape:pageopacity="0.0"
     inkscape:pageshadow="2"
     inkscape:zoom="0.7"
     inkscape:cx="381.32997"
     inkscape:cy="982.86802"
     inkscape:document-units="px"
     inkscape:current-layer="layer1"
     showgrid="false"
     inkscape:snap-bbox="true"
     inkscape:snap-bbox-edge-midpoints="true"
     inkscape:bbox-nodes="true"
     inkscape:snap-global="false"
     fit-margin-top="15"
     fit-margin-left="15"
     fit-margin-bottom="15"
     fit-margin-right="15"
     inkscape:window-width="2560"
     inkscape:window-height="1377"
     inkscape:window-x="-8"
     inkscape:window-y="-8"
     inkscape:window-maximized="1">
    <inkscape:grid
       type="xygrid"
       id="grid4136"
       originx="415.71011"
       originy="241.89717" />
  </sodipodi:namedview>
  <metadata
     id="metadata7">
    <rdf:RDF>
      <cc:Work
         rdf:about="">
        <dc:format>image/svg+xml</dc:format>
        <dc:type
           rdf:resource="http://purl.org/dc/dcmitype/StillImage" />
        <dc:title>isaac_snowflake</dc:title>
      </cc:Work>
    </rdf:RDF>
  </metadata>
  <g
     inkscape:label="Layer 1"
     inkscape:groupmode="layer"
     id="layer1"
     transform="translate(415.7101,296.94825)">
    <g
       id="g4448"
       transform="translate(-6,-2)">
      <path
         id="path4147-7"
         d="m -12.340629,865.68546 c 1.585229,2.7457 1.866212,5.63421 0.884541,8.6416 -0.981648,3.00738 -3.091676,5.50139 -6.378196,7.39886 -3.286521,1.89747 -6.501436,2.47783 -9.644768,1.74108 -3.14331,-0.73675 -5.528386,-2.46598 -7.113593,-5.21166 -1.729342,-2.99531 -2.106417,-6.05025 -1.196826,-9.18243 0.933603,-3.09058 3.043676,-5.58461 6.330174,-7.48207 3.286521,-1.89747 6.501436,-2.47781 9.644746,-1.74106 3.143355,0.73673 5.600465,2.59075 7.353819,5.62768 l 0.120058,0.20807 z M 108.25223,805.93455 8.9496647,863.26692 -0.17741314,847.45837 99.083556,790.15003 l 9.127074,15.80853 z"
         inkscape:connector-curvature="0"
         style="fill:none;stroke:#666666;stroke-width:1.12835717;stroke-miterlimit:4;stroke-dasharray:none;stroke-opacity:1" />
      <path
         id="path4151-6"
         d="m 74.526284,785.46888 c 0.195883,-2.83109 -0.0158,-5.98212 -0.673561,-9.42904 -0.617257,-3.47099 -1.775335,-6.62969 -3.432598,-9.50018 -2.594025,-4.49297 -5.94924,-7.32611 -10.059304,-8.39223 -4.068427,-1.09015 -8.331563,-0.40382 -12.699682,2.11813 -3.952139,2.28176 -6.85908,5.12491 -8.696768,8.57107 -1.83771,3.44616 -2.994705,8.55161 -3.423007,15.39966 -0.501171,9.21978 -2.028673,16.75793 -4.582574,22.61442 -2.553856,5.85649 -6.650921,10.3852 -12.225524,13.60368 -7.945869,4.58756 -15.9664343,5.77919 -24.1689137,3.58134 -8.2025243,-2.19784 -14.5287043,-7.19852 -19.0201753,-14.97798 -2.041581,-3.53611 -3.415807,-7.06927 -4.164314,-10.57539 -0.748462,-3.50612 -1.061649,-6.93077 -0.981084,-10.24993 l 14.395941,-2.54277 c -0.420606,5.90063 0.645308,11.10944 3.263322,15.64399 2.3778546,4.11855 5.4512963,6.55969 9.2027679,7.38907 3.7515167,0.82937 7.3537067,0.24729 10.7650237,-1.72223 3.4112944,-1.96953 5.8014484,-4.45882 7.1944054,-7.42633 1.392934,-2.96751 2.365962,-7.91129 2.919082,-14.83137 0.419659,-8.78447 1.923172,-16.36421 4.617712,-22.74565 2.694539,-6.38147 7.253937,-11.45445 13.660546,-15.1533 9.568333,-5.52428 18.499393,-6.96426 26.817281,-4.27832 8.317887,2.68589 14.921146,8.35862 19.893004,16.97011 2.13765,3.70254 3.752058,7.65168 4.801633,11.87146 1.049598,4.21981 1.358046,7.92452 0.81815,11.1206 l -14.221363,2.94119 z"
         inkscape:connector-curvature="0"
         style="fill:none;stroke:#666666;stroke-width:1.12835717;stroke-miterlimit:4;stroke-dasharray:none;stroke-opacity:1" />
      <path
         id="path4163-8"
         d="m -54.310144,530.03665 c 2.186485,1.28917 4.49481,3.17366 6.817714,5.65986 2.322881,2.4862 4.474681,5.34853 6.372149,8.63505 6.388961,11.06598 7.112735,22.40743 2.129774,34.04838 -4.941347,11.61691 -15.441116,22.06096 -31.416036,31.28409 -7.113863,4.10719 -14.316054,7.10054 -21.630697,8.93848 -7.314597,1.83796 -14.2711,2.47074 -20.95919,1.83913 -6.62244,-0.61401 -12.72683,-2.63652 -18.22351,-6.00827 -5.49668,-3.37178 -9.99839,-8.09457 -13.45706,-14.08517 -1.48916,-2.57929 -2.7111,-5.36832 -3.57623,-8.30787 -0.86514,-2.93958 -1.35884,-5.42796 -1.39149,-7.40597 l 14.71542,-4.39128 c 0.12705,1.75715 0.4397,3.73987 1.00372,5.96579 0.56404,2.22591 1.49778,4.51568 2.84283,6.84538 4.2753,7.40504 11.28596,10.90115 21.01436,10.55395 9.72843,-0.34717 19.950418,-3.58635 30.600372,-9.7351 11.606801,-6.7012 19.516584,-14.04135 23.68776,-21.99642 4.171175,-7.95508 4.167136,-15.55193 -0.03611,-22.83218 -2.13765,-3.70252 -5.220999,-7.02544 -9.291637,-9.94482 l 10.797881,-9.06303 z"
         inkscape:connector-curvature="0"
         style="fill:none;stroke:#666666;stroke-width:1.12835717;stroke-miterlimit:4;stroke-dasharray:none;stroke-opacity:1" />
      <path
         id="path4147-6"
         d="m 808.31671,608.89907 c 1.58523,-2.7457 3.94627,-4.4333 7.04158,-5.08684 3.09529,-0.65357 6.31018,-0.0731 9.5967,1.82426 3.28652,1.89747 5.39657,4.3915 6.33019,7.48207 0.93361,3.09057 0.62859,6.02071 -0.95664,8.76639 -1.72934,2.99531 -4.18645,4.84934 -7.3538,5.6277 -3.14331,0.73675 -6.35824,0.15639 -9.64474,-1.74108 -3.28652,-1.89747 -5.39657,-4.3915 -6.33018,-7.48207 -0.93364,-3.09057 -0.55657,-6.1455 1.19681,-9.18243 l 0.12006,-0.20807 z m -112.04223,-74.56103 99.30256,57.33237 -9.12706,15.80855 -99.26097,-57.30836 9.12706,-15.80853 z"
         inkscape:connector-curvature="0"
         style="fill:none;stroke:#666666;stroke-width:1.12835717;stroke-miterlimit:4;stroke-dasharray:none;stroke-opacity:1" />
      <path
         id="path4151-3"
         d="m 695.41365,573.77841 c -2.54975,1.24586 -5.17331,3.0038 -7.82901,5.29784 -2.69732,2.27005 -4.85381,4.85232 -6.5111,7.72281 -2.594,4.49296 -3.36997,8.81525 -2.23823,12.90771 1.09013,4.06845 3.81608,7.41726 8.1842,9.9392 3.95214,2.28177 7.86785,3.37767 11.77113,3.24608 3.90333,-0.13156 8.90328,-1.68231 15.04802,-4.73542 8.23516,-4.17587 15.52712,-6.62208 21.87596,-7.33859 6.34879,-0.71653 12.31929,0.56727 17.89389,3.78578 7.94587,4.58754 12.98814,10.93773 15.18598,19.14023 2.19788,8.2025 1.03025,16.18148 -3.46122,23.96093 -2.04158,3.53612 -4.41426,6.49282 -7.0764,8.8941 -2.66215,2.40126 -5.4714,4.38479 -8.38615,5.9746 l -9.40007,-11.19585 c 5.32038,-2.58606 9.29838,-6.11357 11.91642,-10.64812 2.37783,-4.11855 2.95521,-8.0008 1.79774,-11.66437 -1.15751,-3.66358 -3.4627,-6.49214 -6.87402,-8.46167 -3.41129,-1.9695 -6.76217,-2.79478 -10.02859,-2.51736 -3.26639,0.27744 -8.03435,1.90665 -14.30389,4.88768 -7.81739,4.0288 -15.13339,6.5166 -22.00716,7.37377 -6.87377,0.85719 -13.54681,-0.55486 -19.95342,-4.25373 -9.56833,-5.52428 -15.28091,-12.53882 -17.11377,-21.08529 -1.83288,-8.54645 -0.22183,-17.1014 4.75005,-25.71289 2.13767,-3.70255 4.75052,-7.07523 7.88017,-10.09408 3.12966,-3.01887 6.18381,-5.13836 9.22164,-6.26884 l 9.65783,10.84548 z"
         inkscape:connector-curvature="0"
         style="fill:none;stroke:#666666;stroke-width:1.12835717;stroke-miterlimit:4;stroke-dasharray:none;stroke-opacity:1" />
      <path
         id="path4163-2"
         d="m 538.62107,813.07015 c 0.0232,-2.53815 0.50106,-5.47946 1.49273,-8.73425 0.99166,-3.2548 2.39462,-6.54946 4.29209,-9.83598 6.38893,-11.06598 15.84904,-17.36352 28.42187,-18.86862 12.53122,-1.52912 26.82592,2.34191 42.80084,11.56505 7.11386,4.10718 13.30728,8.84779 18.55631,14.26348 5.249,5.41566 9.27525,11.12377 12.07231,17.23161 2.77949,6.04222 4.08014,12.34003 3.90845,18.78618 -0.17173,6.44615 -2.01091,12.70614 -5.4696,18.69674 -1.48913,2.57929 -3.29353,5.03205 -5.4067,7.25105 -2.11316,2.219 -4.02133,3.89076 -5.71802,4.90804 l -11.16067,-10.54829 c 1.45825,-0.98855 3.01899,-2.25074 4.66468,-3.85214 1.64566,-1.60144 3.16181,-3.55496 4.50686,-5.88466 4.2753,-7.40505 3.79769,-15.22449 -1.36719,-23.47594 -5.16487,-8.25148 -13.08109,-15.4844 -23.73104,-21.63316 -11.6068,-6.70118 -21.91845,-9.88118 -30.89334,-9.51598 -8.97488,0.36521 -15.55194,4.16712 -19.75518,11.44737 -2.13765,3.70252 -3.47372,8.03424 -3.96663,13.01921 l -13.24777,-4.81971 z"
         inkscape:connector-curvature="0"
         style="fill:none;stroke:#666666;stroke-width:1.12835717;stroke-miterlimit:4;stroke-dasharray:none;stroke-opacity:1" />
      <path
         id="path4147-2"
         d="m 804.52225,395.05731 c 1.58522,2.7457 3.94627,4.43329 7.04158,5.08684 3.09528,0.65356 6.31018,0.0731 9.5967,-1.82426 3.28652,-1.89747 5.39657,-4.3915 6.33019,-7.48207 0.93361,-3.09057 0.62859,-6.02071 -0.95664,-8.76639 -1.72934,-2.99531 -4.18645,-4.84934 -7.3538,-5.6277 -3.14331,-0.73675 -6.35825,-0.15639 -9.64474,1.74108 -3.28652,1.89746 -5.39657,4.39149 -6.33018,7.48206 -0.93365,3.09057 -0.55657,6.14551 1.19681,9.18244 l 0.12005,0.20807 z m -112.04224,74.56103 99.30256,-57.33237 -9.12705,-15.80855 -99.26097,57.30835 9.12706,15.80853 z"
         inkscape:connector-curvature="0"
         style="fill:none;stroke:#666666;stroke-width:1.12835717;stroke-miterlimit:4;stroke-dasharray:none;stroke-opacity:1" />
      <path
         id="path4151-1"
         d="m 691.61919,430.17797 c -2.54975,-1.24587 -5.17331,-3.0038 -7.82902,-5.29784 -2.69731,-2.27005 -4.8538,-4.85232 -6.51109,-7.72282 -2.594,-4.49296 -3.36997,-8.81524 -2.23823,-12.9077 1.09013,-4.06845 3.81608,-7.41726 8.1842,-9.9392 3.95214,-2.28177 7.86785,-3.37767 11.77113,-3.24608 3.90333,0.13156 8.90328,1.68231 15.04802,4.73542 8.23516,4.17587 15.52712,6.62208 21.87596,7.33858 6.34879,0.71653 12.31929,-0.56727 17.89389,-3.78577 7.94587,-4.58754 12.98814,-10.93773 15.18597,-19.14023 2.19789,-8.2025 1.03026,-16.18148 -3.46121,-23.96094 -2.04158,-3.53611 -4.41427,-6.49281 -7.0764,-8.89409 -2.66216,-2.40126 -5.4714,-4.3848 -8.38615,-5.97461 l -9.40008,11.19586 c 5.32039,2.58605 9.29839,6.11357 11.91643,10.64812 2.37783,4.11855 2.95521,8.0008 1.79774,11.66437 -1.15751,3.66357 -3.4627,6.49214 -6.87402,8.46166 -3.41129,1.96951 -6.76218,2.79479 -10.02859,2.51737 -3.26639,-0.27744 -8.03435,-1.90665 -14.30389,-4.88768 -7.81739,-4.0288 -15.13339,-6.5166 -22.00716,-7.37377 -6.87377,-0.85719 -13.54681,0.55486 -19.95342,4.25372 -9.56833,5.52428 -15.28091,12.53883 -17.11377,21.0853 -1.83288,8.54645 -0.22183,17.1014 4.75005,25.71289 2.13767,3.70254 4.75052,7.07523 7.88017,10.09408 3.12966,3.01887 6.18381,5.13836 9.22164,6.26883 l 9.65783,-10.84547 z"
         inkscape:connector-curvature="0"
         style="fill:none;stroke:#666666;stroke-width:1.12835717;stroke-miterlimit:4;stroke-dasharray:none;stroke-opacity:1" />
      <path
         id="path4163-80"
         d="m 534.82661,190.88623 c 0.0232,2.53815 0.50106,5.47946 1.49272,8.73425 0.99167,3.25479 2.39463,6.54946 4.29209,9.83598 6.38894,11.06598 15.84904,17.36352 28.42188,18.86861 12.53121,1.52913 26.82592,-2.3419 42.80084,-11.56505 7.11386,-4.10717 13.30728,-8.84778 18.55631,-14.26347 5.249,-5.41566 9.27525,-11.12377 12.07231,-17.23162 2.77948,-6.04221 4.08014,-12.34002 3.90845,-18.78617 -0.17173,-6.44615 -2.01091,-12.70614 -5.4696,-18.69674 -1.48914,-2.57929 -3.29354,-5.03205 -5.4067,-7.25105 -2.11317,-2.21901 -4.02133,-3.89076 -5.71802,-4.90804 l -11.16067,10.54829 c 1.45824,0.98855 3.01899,2.25073 4.66467,3.85214 1.64567,1.60143 3.16182,3.55496 4.50687,5.88466 4.2753,7.40504 3.79768,15.22449 -1.36719,23.47594 -5.16487,8.25147 -13.08109,15.4844 -23.73104,21.63316 -11.6068,6.70117 -21.91845,9.88118 -30.89334,9.51597 -8.97488,-0.3652 -15.55194,-4.16711 -19.75519,-11.44736 -2.13765,-3.70252 -3.47371,-8.03424 -3.96662,-13.01921 l -13.24777,4.81971 z"
         inkscape:connector-curvature="0"
         style="fill:none;stroke:#666666;stroke-width:1.12835717;stroke-miterlimit:4;stroke-dasharray:none;stroke-opacity:1" />
      <path
         id="path4147-7-1"
         d="m 172.09544,977.2094 c -3.17046,0 -5.81248,1.20091 -7.92612,3.55475 -2.11364,2.35382 -3.21851,5.42819 -3.21851,9.22312 0,3.79494 1.10487,6.86933 3.31458,9.22315 2.2097,2.35378 4.8998,3.55478 8.07023,3.55478 3.45869,0 6.29287,-1.201 8.55062,-3.55478 2.20971,-2.35382 3.31458,-5.42821 3.31458,-9.22315 0,-3.79493 -1.10487,-6.8693 -3.31458,-9.22312 -2.2097,-2.35384 -5.04389,-3.55475 -8.55062,-3.55475 l -0.24018,0 z m -8.55062,-134.31194 0,114.66473 18.25413,0 0,-114.61669 -18.25413,0 z"
         inkscape:connector-curvature="0"
         style="fill:none;stroke:#666666;stroke-width:1.12835717;stroke-miterlimit:4;stroke-dasharray:none;stroke-opacity:1" />
      <path
         id="path4151-6-6"
         d="m 198.13158,861.87216 c 2.35382,-1.58523 5.18803,-2.97832 8.50258,-4.13121 3.31457,-1.20093 6.62914,-1.77737 9.94369,-1.77737 5.18803,0 9.31922,1.48914 12.29754,4.51549 2.9783,2.9783 4.51548,7.01344 4.51548,12.05733 0,4.56353 -1.00877,8.50257 -3.07437,11.81715 -2.06561,3.31457 -5.90857,6.8693 -11.62501,10.66424 -7.73399,5.04391 -13.49845,10.13585 -17.29338,15.27583 -3.79494,5.13996 -5.66837,10.95247 -5.66837,17.38945 0,9.1751 2.9783,16.71693 8.98294,22.72157 6.00464,6.00467 13.49845,8.98296 22.48139,8.98296 4.08316,0 7.83007,-0.57645 11.24071,-1.68129 3.41062,-1.10487 6.53306,-2.54598 9.36724,-4.27533 l -4.99587,-13.73862 c -4.89978,3.31457 -9.94369,4.99587 -15.17974,4.99587 -4.75569,0 -8.40651,-1.44112 -11.00051,-4.27531 -2.59401,-2.8342 -3.89101,-6.24484 -3.89101,-10.18389 0,-3.93903 0.96073,-7.2536 2.83419,-9.94369 1.87345,-2.69008 5.66839,-6.00465 11.38481,-9.9437 7.39773,-4.75566 13.21021,-9.8476 17.38945,-15.37188 4.17923,-5.52428 6.29287,-12.00931 6.29287,-19.40702 0,-11.04856 -3.21848,-19.50309 -9.70351,-25.36362 -6.48501,-5.86055 -14.69936,-8.74278 -24.64305,-8.74278 -4.27533,0 -8.50258,0.57646 -12.68181,1.77739 -4.17926,1.20093 -7.54185,2.78616 -10.03979,4.85175 l 4.56353,13.78668 z"
         inkscape:connector-curvature="0"
         style="fill:none;stroke:#666666;stroke-width:1.12835717;stroke-miterlimit:4;stroke-dasharray:none;stroke-opacity:1" />
      <path
         id="path4163-8-4"
         d="m 483.76059,845.73166 c -2.2097,-1.24897 -4.99587,-2.30579 -8.31044,-3.07439 -3.31455,-0.76859 -6.8693,-1.20093 -10.66424,-1.20093 -12.7779,0 -22.96177,5.04392 -30.55164,15.17977 -7.58987,10.08778 -11.38481,24.40286 -11.38481,42.84913 0,8.21438 1.00877,15.94834 3.07439,23.20196 2.06559,7.25362 4.99585,13.59452 8.88687,19.07075 3.84296,5.42821 8.64669,9.70351 14.31506,12.7779 5.6684,3.07437 12.00931,4.61157 18.92666,4.61157 2.9783,0 6.00464,-0.33627 8.98294,-1.05682 2.9783,-0.72057 5.38017,-1.5372 7.10951,-2.49793 l -3.55475,-14.93956 c -1.58523,0.76859 -3.45869,1.48914 -5.6684,2.11364 -2.2097,0.62447 -4.65959,0.96072 -7.34969,0.96072 -8.5506,0 -15.08365,-4.32334 -19.64718,-12.92199 -4.56355,-8.59864 -6.86932,-19.07075 -6.86932,-31.36826 0,-13.40238 2.40186,-23.92252 7.20557,-31.5124 4.80371,-7.58987 11.38481,-11.3848 19.79132,-11.3848 4.2753,0 8.69471,1.00879 13.25826,3.07439 l 2.44989,-13.88275 z"
         inkscape:connector-curvature="0"
         style="fill:none;stroke:#666666;stroke-width:1.12835717;stroke-miterlimit:4;stroke-dasharray:none;stroke-opacity:1" />
      <path
         id="path4147-6-7"
         d="m -15.84973,138.10608 c 1.585229,-2.7457 1.866235,-5.6342 0.884565,-8.64159 -0.981649,-3.00739 -3.091699,-5.50139 -6.37822,-7.39886 -3.286498,-1.89747 -6.501436,-2.47783 -9.644768,-1.74108 -3.14331,0.73675 -5.528386,2.46598 -7.113592,5.21166 -1.729343,2.99531 -2.106417,6.05025 -1.196826,9.18243 0.933603,3.09057 3.043676,5.5846 6.330196,7.48207 3.286499,1.89747 6.501414,2.4778 9.644746,1.74106 3.143332,-0.73673 5.600443,-2.59076 7.353819,-5.62769 l 0.120058,-0.20807 z m 120.59285,59.75091 -99.3025557,-57.33236 -9.1270779,15.80855 99.2609696,57.30833 9.127074,-15.80853 z"
         inkscape:connector-curvature="0"
         style="fill:none;stroke:#666666;stroke-width:1.12835717;stroke-miterlimit:4;stroke-dasharray:none;stroke-opacity:1" />
      <path
         id="path4151-3-6"
         d="m 71.017184,218.32266 c 0.195883,2.8311 -0.0158,5.98212 -0.673562,9.42905 -0.617256,3.47099 -1.775334,6.62971 -3.432597,9.50018 -2.594026,4.49296 -5.949241,7.32611 -10.059304,8.39225 -4.068428,1.09013 -8.331541,0.40379 -12.699683,-2.11815 -3.952138,-2.28177 -6.859057,-5.12491 -8.696767,-8.57105 -1.83771,-3.44616 -2.994705,-8.55164 -3.423007,-15.39968 -0.501149,-9.21979 -2.028673,-16.75793 -4.582574,-22.61442 -2.553856,-5.85649 -6.650921,-10.3852 -12.225502,-13.60368 -7.9458684,-4.58756 -15.96643417,-5.77918 -24.1689362,-3.58134 -8.2025248,2.19784 -14.5287038,7.19851 -19.0201748,14.97797 -2.041582,3.53614 -3.415808,7.06927 -4.164315,10.57539 -0.748462,3.50613 -1.061626,6.93078 -0.981061,10.24993 l 14.395919,2.54278 c -0.420607,-5.90063 0.645307,-11.10942 3.263321,-15.64397 2.377855,-4.11855 5.4512969,-6.55971 9.202791,-7.3891 3.7514942,-0.82936 7.3536841,-0.24726 10.7650011,1.72226 3.4112945,1.9695 5.8014479,4.45882 7.1944049,7.42631 1.392935,2.96751 2.365985,7.91129 2.919083,14.83139 0.419658,8.78444 1.923172,16.36418 4.617711,22.74563 2.694562,6.38147 7.253938,11.45445 13.660546,15.15329 9.568334,5.52428 18.499416,6.96427 26.817281,4.27833 8.317888,-2.6859 14.921147,-8.35862 19.893004,-16.97011 2.13765,-3.70255 3.752059,-7.65168 4.801634,-11.87147 1.049598,-4.21981 1.358045,-7.9245 0.818149,-11.12057 l -14.221362,-2.94122 z"
         inkscape:connector-curvature="0"
         style="fill:none;stroke:#666666;stroke-width:1.12835717;stroke-miterlimit:4;stroke-dasharray:none;stroke-opacity:1" />
      <path
         id="path4163-2-9"
         d="m -57.819245,473.7549 c 2.186508,-1.28917 4.494811,-3.17367 6.817715,-5.65987 2.322903,-2.48617 4.474703,-5.34852 6.372171,-8.63502 6.388939,-11.066 7.112712,-22.40744 2.129752,-34.0484 -4.941347,-11.61691 -15.441094,-22.06096 -31.416036,-31.28409 -7.113863,-4.1072 -14.316054,-7.10055 -21.630674,-8.93848 -7.314623,-1.83796 -14.271123,-2.47072 -20.959193,-1.83911 -6.62246,0.61398 -12.72683,2.63649 -18.22353,6.00825 -5.49665,3.37178 -9.99839,8.09459 -13.45706,14.08517 -1.48916,2.57929 -2.7111,5.36832 -3.57623,8.30787 -0.86512,2.93957 -1.35884,5.42796 -1.39149,7.40599 l 14.71542,4.39128 c 0.12705,-1.75715 0.43972,-3.7399 1.00374,-5.96581 0.56402,-2.22589 1.49778,-4.51568 2.84283,-6.84538 4.2753,-7.40502 11.28594,-10.90115 21.01437,-10.55395 9.7284,0.34717 19.95041,3.58634 30.600364,9.7351 11.606801,6.7012 19.516585,14.04135 23.687737,21.99642 4.171176,7.95508 4.167136,15.55194 -0.03611,22.8322 -2.13765,3.7025 -5.220999,7.02544 -9.291615,9.94479 l 10.797859,9.06304 z"
         inkscape:connector-curvature="0"
         style="fill:none;stroke:#666666;stroke-width:1.12835717;stroke-miterlimit:4;stroke-dasharray:none;stroke-opacity:1" />
      <path
         id="path4147"
         d="m 175.60447,26.911699 c -3.17046,0 -5.81248,-1.200911 -7.92612,-3.554754 -2.11364,-2.353821 -3.2185,-5.428188 -3.2185,-9.223124 0,-3.794936 1.10486,-6.8693254 3.31457,-9.2231461 2.20971,-2.3538207 4.8998,-3.5547313 8.07023,-3.5547313 3.45869,0 6.29288,1.2009106 8.55063,3.5547313 2.2097,2.3538207 3.31457,5.4282101 3.31457,9.2231461 0,3.794936 -1.10487,6.869303 -3.31457,9.223124 -2.20971,2.353843 -5.04389,3.554754 -8.55063,3.554754 l -0.24018,0 z m -8.55062,134.311941 0,-114.664739 18.25413,0 0,114.616689 -18.25413,0 z"
         inkscape:connector-curvature="0"
         style="fill:none;stroke:#666666;stroke-width:1.12835717;stroke-miterlimit:4;stroke-dasharray:none;stroke-opacity:1" />
      <path
         id="path4151"
         d="m 201.64061,142.24894 c 2.35383,1.58523 5.18803,2.97832 8.50258,4.13121 3.31457,1.20093 6.62915,1.77736 9.94369,1.77736 5.18803,0 9.31922,-1.48914 12.29754,-4.51548 2.9783,-2.9783 4.51548,-7.01344 4.51548,-12.05733 0,-4.56353 -1.00877,-8.50258 -3.07436,-11.81715 -2.06562,-3.31457 -5.90858,-6.8693 -11.62502,-10.66424 -7.73398,-5.04391 -13.49844,-10.135852 -17.29338,-15.275835 -3.79494,-5.13996 -5.66837,-10.952466 -5.66837,-17.389451 0,-9.1751 2.9783,-16.716927 8.98294,-22.721569 6.00465,-6.004666 13.49845,-8.982965 22.48139,-8.982965 4.08316,0 7.83008,0.576455 11.24072,1.681298 3.41061,1.104864 6.53305,2.54598 9.36723,4.275322 l -4.99586,13.738629 c -4.89978,-3.314572 -9.9437,-4.995869 -15.17975,-4.995869 -4.75569,0 -8.40651,1.441115 -11.00051,4.2753 -2.594,2.834207 -3.891,6.244847 -3.891,10.183897 0,3.939027 0.96072,7.253599 2.83418,9.943693 1.87346,2.690071 5.66839,6.004642 11.38481,9.943692 7.39773,4.755664 13.21022,9.847598 17.38945,15.371878 4.17923,5.52428 6.29287,12.00931 6.29287,19.40702 0,11.04856 -3.21848,19.50309 -9.70351,25.36362 -6.48501,5.86055 -14.69936,8.74278 -24.64305,8.74278 -4.27532,0 -8.50258,-0.57645 -12.68181,-1.77738 -4.17925,-1.20094 -7.54185,-2.78617 -10.03978,-4.85176 l 4.56352,-13.78667 z"
         inkscape:connector-curvature="0"
         style="fill:none;stroke:#666666;stroke-width:1.12835717;stroke-miterlimit:4;stroke-dasharray:none;stroke-opacity:1" />
      <path
         id="path4163"
         d="m 487.26963,158.38943 c -2.20971,1.24898 -4.99587,2.3058 -8.31044,3.07439 -3.31455,0.76859 -6.86931,1.20093 -10.66424,1.20093 -12.7779,0 -22.96178,-5.04391 -30.55165,-15.17976 -7.58987,-10.08779 -11.38481,-24.40287 -11.38481,-42.84914 0,-8.214372 1.00878,-15.948335 3.07439,-23.201957 2.0656,-7.253621 4.99585,-13.594514 8.88688,-19.070747 3.84295,-5.428211 8.64669,-9.703511 14.31506,-12.7779 5.66839,-3.074367 12.0093,-4.611574 18.92665,-4.611574 2.9783,0 6.00465,0.336273 8.98294,1.05682 2.9783,0.720569 5.38017,1.537206 7.10951,2.497934 l -3.55475,14.939562 c -1.58523,-0.768592 -3.45869,-1.489138 -5.66839,-2.113639 -2.20971,-0.624478 -4.6596,-0.960728 -7.34969,-0.960728 -8.5506,0 -15.08366,4.323345 -19.64718,12.921991 -4.56355,8.598646 -6.86933,19.070748 -6.86933,31.368258 0,13.40238 2.40187,23.92253 7.20558,31.5124 4.80371,7.58987 11.3848,11.38481 19.79131,11.38481 4.2753,0 8.69472,-1.0088 13.25827,-3.07439 l 2.44989,13.88274 z"
         inkscape:connector-curvature="0"
         style="fill:none;stroke:#666666;stroke-width:1.12835717;stroke-miterlimit:4;stroke-dasharray:none;stroke-opacity:1" />
      <path
         id="path4155"
         d="m 298.53205,44.63696 c -5.23605,0 -10.27952,0.76865 -15.27539,2.25781 -4.94782,1.48914 -8.79234,3.26644 -11.48242,5.33204 l 4.03515,12.77929 c 5.9566,-3.93905 12.29862,-5.91015 18.92774,-5.91015 6.77325,0 11.52866,2.21108 14.21875,6.72656 2.69007,4.5155 4.03515,10.95208 4.03515,19.31055 l 0,3.55468 c -6.67717,0 -12.87384,0.86441 -18.73437,2.59375 -5.8125,1.72935 -10.95361,4.27528 -15.37305,7.58985 -9.79958,7.44576 -14.69922,17.91721 -14.69922,31.51172 0,9.65547 2.64205,17.5352 7.83008,23.58789 5.09271,5.98865 11.43946,9.00608 18.98633,9.11523 l 0,-15.35351 c -1.71546,-0.8438 -3.3198,-2.14862 -4.81445,-3.94727 -2.83421,-3.41064 -4.27539,-8.50214 -4.27539,-15.27539 0,-5.86053 1.10474,-10.56793 3.31445,-14.21875 2.2097,-3.65083 4.996,-6.34099 8.31055,-8.07031 3.31457,-1.72934 6.62879,-2.83373 9.94336,-3.41016 3.31455,-0.52841 6.62879,-0.81641 9.94336,-0.81641 l 0,23.20118 c 0,2.83418 -0.14419,4.94755 -0.48047,6.38867 -0.96072,5.52428 -2.97798,9.801 -6.14844,12.77929 -1.78064,1.69971 -3.7178,2.89632 -5.79297,3.63477 l 0,13.21484 c 1.17844,-0.49354 2.32773,-1.07614 3.43945,-1.76757 3.93905,-2.44989 7.15717,-5.90871 9.70313,-10.32813 l 0.7207,0 1.20117,12.05859 16.57227,0 c -0.48036,-3.31457 -0.81673,-6.96488 -0.96094,-11 -0.14408,-4.03512 -0.24023,-9.03247 -0.24023,-15.03711 l 0.0488,0 0,-49.52539 c 0,-13.30628 -2.69016,-23.44166 -8.07032,-30.45507 -5.38017,-7.01344 -13.69014,-10.52149 -24.88281,-10.52149 z"
         style="fill:none;stroke:#666666;stroke-width:1.12835717;stroke-miterlimit:4;stroke-dasharray:none;stroke-opacity:1"
         inkscape:connector-curvature="0" />
      <path
         id="path4155-1"
         d="m 378.84041,44.383531 c -5.23605,0 -10.27952,0.76865 -15.27539,2.25781 -4.94782,1.48914 -8.79234,3.26644 -11.48242,5.33204 l 4.03515,12.77929 c 5.9566,-3.93905 12.29862,-5.91015 18.92774,-5.91015 6.77325,0 11.52866,2.21108 14.21875,6.72656 2.69007,4.5155 4.03515,10.95208 4.03515,19.31055 l 0,3.55468 c -6.67717,0 -12.87384,0.86441 -18.73437,2.59375 -5.8125,1.72935 -10.95361,4.27528 -15.37305,7.589849 -9.79958,7.44576 -14.69922,17.91721 -14.69922,31.51172 0,9.65547 2.64205,17.5352 7.83008,23.58789 5.09271,5.98865 11.43946,9.00608 18.98633,9.11523 l 0,-15.35351 c -1.71546,-0.8438 -3.3198,-2.14862 -4.81445,-3.94727 -2.83421,-3.41064 -4.27539,-8.50214 -4.27539,-15.27539 0,-5.86053 1.10474,-10.56793 3.31445,-14.21875 2.2097,-3.65083 4.996,-6.34099 8.31055,-8.07031 3.31457,-1.72934 6.62879,-2.83373 9.94336,-3.41016 3.31455,-0.52841 6.62879,-0.81641 9.94336,-0.81641 l 0,23.20118 c 0,2.83418 -0.14419,4.94755 -0.48047,6.38867 -0.96072,5.52428 -2.97798,9.801 -6.14844,12.77929 -1.78064,1.69971 -3.7178,2.89632 -5.79297,3.63477 l 0,13.21484 c 1.17844,-0.49354 2.32773,-1.07614 3.43945,-1.76757 3.93905,-2.44989 7.15717,-5.90871 9.70313,-10.32813 l 0.7207,0 1.20117,12.05859 16.57227,0 c -0.48036,-3.31457 -0.81673,-6.96488 -0.96094,-11 -0.14408,-4.03512 -0.24023,-9.03247 -0.24023,-15.03711 l 0.0488,0 0,-49.525389 c 0,-13.30628 -2.69016,-23.44166 -8.07032,-30.45507 -5.38017,-7.01344 -13.69014,-10.52149 -24.88281,-10.52149 z"
         style="fill:none;stroke:#666666;stroke-width:1.12835717;stroke-miterlimit:4;stroke-dasharray:none;stroke-opacity:1"
         inkscape:connector-curvature="0" />
      <path
         id="path4155-4"
         d="m 731.39198,705.24498 c 2.61803,-4.53455 4.47409,-9.28665 5.68238,-14.35778 1.18427,-5.02951 1.56735,-9.24761 1.12353,-12.61009 l -13.08477,-2.8951 c 0.43302,7.12809 -1.03097,13.60599 -4.34553,19.34698 -3.38662,5.8658 -7.67918,8.87857 -12.93475,8.95051 -5.25557,0.0719 -11.50235,-1.98149 -18.741,-6.16073 l -3.07844,-1.77734 c 3.33858,-5.7826 5.68832,-11.58128 7.12093,-17.52131 1.40859,-5.89845 1.77431,-11.62375 1.11352,-17.10838 -1.54842,-12.20957 -8.16715,-21.6885 -19.94034,-28.48576 -8.36188,-4.82773 -16.50695,-6.47952 -24.34275,-5.01289 -7.73268,1.41609 -13.51922,5.40382 -17.38718,11.88502 l 13.29653,7.67676 c 1.58848,-1.06373 3.52065,-1.80072 5.82566,-2.1958 4.3708,-0.74918 9.50076,0.54847 15.36657,3.9351 5.07537,2.93026 8.59972,6.24069 10.65657,9.97977 2.05686,3.73907 2.99346,7.49716 2.83382,11.2323 -0.15963,3.73517 -0.86031,7.15757 -2.0184,10.31628 -1.19965,3.13469 -2.60736,6.14891 -4.26464,9.01941 l -20.09281,-11.60059 c -2.45448,-1.41709 -4.21261,-2.59865 -5.29252,-3.61043 -4.30381,-3.59415 -6.99893,-7.47951 -7.99297,-11.71435 -0.58167,-2.39194 -0.64939,-4.66787 -0.25132,-6.83425 l -11.44439,-6.60742 c -0.1618,1.26733 -0.2319,2.55395 -0.18896,3.86244 0.15214,4.63626 1.53851,9.15265 4.09286,13.56722 l -0.36035,0.62415 -11.04363,-4.98906 -8.28614,14.35201 c 3.11068,1.24128 6.44013,2.77513 10.00675,4.6678 3.56656,1.89279 7.94247,4.30819 13.14264,7.31051 l -0.0244,0.0423 42.89024,24.7627 c 11.52358,6.65314 21.64616,9.39108 30.41003,8.23843 8.7639,-1.15264 15.95694,-6.59526 21.55328,-16.2884 z"
         style="fill:none;stroke:#666666;stroke-width:1.12835717;stroke-miterlimit:4;stroke-dasharray:none;stroke-opacity:1"
         inkscape:connector-curvature="0" />
      <path
         id="path4155-1-1"
         d="m 691.45728,774.92077 c 2.61802,-4.53455 4.47409,-9.28665 5.68237,-14.35778 1.18428,-5.02951 1.56735,-9.24761 1.12353,-12.61009 l -13.08476,-2.8951 c 0.43301,7.12809 -1.03097,13.60599 -4.34553,19.34698 -3.38663,5.86581 -7.67918,8.87857 -12.93475,8.95052 -5.25557,0.0719 -11.50235,-1.9815 -18.741,-6.16073 l -3.07844,-1.77734 c 3.33858,-5.7826 5.68831,-11.58128 7.12093,-17.52132 1.40859,-5.89845 1.7743,-11.62374 1.11352,-17.10838 -1.54843,-12.20956 -8.16715,-21.6885 -19.94034,-28.48575 -8.36188,-4.82774 -16.50695,-6.47952 -24.34275,-5.0129 -7.73268,1.41609 -13.51923,5.40382 -17.38719,11.88503 l 13.29653,7.67675 c 1.58848,-1.06373 3.52066,-1.80072 5.82566,-2.1958 4.37081,-0.74918 9.50077,0.54848 15.36657,3.9351 5.07537,2.93027 8.59973,6.2407 10.65658,9.97977 2.05686,3.73908 2.99346,7.49716 2.83382,11.23231 -0.15964,3.73517 -0.86032,7.15756 -2.0184,10.31628 -1.19966,3.13469 -2.60736,6.1489 -4.26465,9.01941 l -20.09281,-11.60059 c -2.45447,-1.41709 -4.21261,-2.59865 -5.29251,-3.61044 -4.30381,-3.59415 -6.99893,-7.4795 -7.99297,-11.71435 -0.58168,-2.39193 -0.64939,-4.66787 -0.25132,-6.83424 l -11.44439,-6.60742 c -0.1618,1.26733 -0.2319,2.55394 -0.18896,3.86243 0.15214,4.63627 1.5385,9.15265 4.09285,13.56723 l -0.36035,0.62414 -11.04363,-4.98905 -8.28613,14.35201 c 3.11068,1.24128 6.44013,2.77513 10.00675,4.6678 3.56656,1.89278 7.94246,4.30819 13.14263,7.31051 l -0.0244,0.0423 42.89025,24.76269 c 11.52357,6.65314 21.64615,9.39109 30.41002,8.23844 8.7639,-1.15265 15.95695,-6.59527 21.55328,-16.2884 z"
         style="fill:none;stroke:#666666;stroke-width:1.12835717;stroke-miterlimit:4;stroke-dasharray:none;stroke-opacity:1"
         inkscape:connector-curvature="0" />
      <path
         id="path4155-2"
         d="m -58.124915,750.72018 c 2.618025,4.53455 5.805431,8.518 9.593016,12.09997 3.763543,3.54037 7.22499,5.98117 10.358892,7.27805 l 9.049615,-9.88419 c -6.389618,-3.18904 -11.26765,-7.69584 -14.58221,-13.43683 -3.386625,-5.8658 -3.849479,-11.08965 -1.284003,-15.67707 2.565502,-4.58742 7.467204,-8.97059 14.705851,-13.14982 l 3.078444,-1.77734 c 3.338585,5.7826 7.185521,10.71687 11.613438,14.92756 4.403911,4.1691 9.179306,7.34847 14.2595278,9.51853 11.3480072,4.76381 22.8663692,3.77129 34.6395602,-3.02596 8.361882,-4.82774 13.864903,-11.05568 16.512672,-18.575 2.639968,-7.40474 2.079764,-14.4099 -1.599145,-21.00025 l -13.296529,7.67675 c 0.126977,1.90753 -0.20086,3.94934 -1.011211,6.14307 -1.536596,4.15982 -5.225375,7.95367 -11.091181,11.34029 -5.075368,2.93027 -9.704466,4.32724 -13.9710238,4.23898 -4.2665616,-0.0882 -7.98945844,-1.15617 -11.1443685,-3.16199 -3.1549374,-2.00583 -5.7684771,-4.32384 -7.9249647,-6.90612 -2.114892,-2.60628 -4.021427,-5.3325 -5.678712,-8.203 L 4.1955639,697.54522 c 2.4544719,-1.41709 4.356799,-2.3489 5.7729855,-2.77824 5.2645266,-1.93013 9.9769046,-2.32149 14.1414096,-1.06494 2.362312,0.69223 4.367187,1.77155 6.044288,3.19948 l 11.444387,-6.60742 c -1.016638,-0.77379 -2.095829,-1.47781 -3.250485,-2.09487 -4.091192,-2.18637 -8.695678,-3.24394 -13.795988,-3.23909 l -0.36035,-0.62415 9.84246,-7.06953 -8.286135,-14.35201 c -2.630322,2.07329 -5.623398,4.18975 -9.045809,6.3322 -3.422477,2.14233 -7.7022337,4.72428 -12.9024044,7.7266 l -0.0244,-0.0423 -42.8902456,24.76269 c -11.523577,6.65314 -18.955993,14.05058 -22.339704,22.21664 -3.383732,8.16608 -2.266808,17.11675 3.329527,26.80989 z"
         style="fill:none;stroke:#666666;stroke-width:1.12835717;stroke-miterlimit:4;stroke-dasharray:none;stroke-opacity:1"
         inkscape:connector-curvature="0" />
      <path
         id="path4155-1-7"
         d="m -98.498571,681.29782 c 2.618025,4.53455 5.805431,8.518 9.593016,12.09997 3.763543,3.54037 7.22499,5.98117 10.358892,7.27805 l 9.049615,-9.88419 c -6.389618,-3.18904 -11.26765,-7.69584 -14.58221,-13.43683 -3.386625,-5.86581 -3.849479,-11.08965 -1.284003,-15.67708 2.565502,-4.58742 7.467204,-8.97058 14.705851,-13.14982 l 3.078444,-1.77734 c 3.338585,5.7826 7.185521,10.71687 11.613438,14.92757 4.403911,4.1691 9.179306,7.34846 14.259527,9.51853 11.348007,4.7638 22.866369,3.77129 34.6395599,-3.02597 8.3618822,-4.82773 13.8649036,-11.05568 16.5126718,-18.57499 2.6399683,-7.40474 2.0797643,-14.4099 -1.5991442,-21.00026 l -13.2965297,7.67676 c 0.1269778,1.90753 -0.2008595,3.94934 -1.0112111,6.14307 -1.5365958,4.15982 -5.2253737,7.95366 -11.0911807,11.34029 -5.075368,2.93026 -9.704466,4.32723 -13.971024,4.23898 -4.266561,-0.0883 -7.989458,-1.15617 -11.144368,-3.162 -3.154937,-2.00583 -5.768477,-4.32383 -7.924965,-6.90612 -2.114892,-2.60628 -4.021427,-5.33249 -5.678712,-8.203 l 20.092811,-11.60059 c 2.454472,-1.41709 4.356799,-2.3489 5.772986,-2.77823 5.264526,-1.93013 9.976905,-2.3215 14.141409,-1.06494 2.362312,0.69222 4.367187,1.77155 6.044288,3.19947 l 11.4443876,-6.60742 c -1.0166382,-0.77379 -2.0958296,-1.4778 -3.2504855,-2.09486 -4.091192,-2.18638 -8.6956781,-3.24394 -13.7959881,-3.2391 l -0.36035,-0.62414 9.8424604,-7.06954 -8.2861354,-14.35201 c -2.630321,2.07329 -5.623398,4.18975 -9.045809,6.3322 -3.422476,2.14234 -7.702233,4.72428 -12.902404,7.7266 l -0.0244,-0.0423 -42.890245,24.7627 c -11.523577,6.65314 -18.955993,14.05057 -22.339701,22.21663 -3.38374,8.16609 -2.26681,17.11676 3.329524,26.80989 z"
         style="fill:none;stroke:#666666;stroke-width:1.12835717;stroke-miterlimit:4;stroke-dasharray:none;stroke-opacity:1"
         inkscape:connector-curvature="0" />
      <path
         id="path4155-19"
         d="m 727.74318,296.91466 c 2.61803,4.53455 4.47409,9.28665 5.68238,14.35778 1.18427,5.02951 1.56735,9.24761 1.12353,12.61009 l -13.08477,2.8951 c 0.43302,-7.12809 -1.03097,-13.60599 -4.34553,-19.34698 -3.38662,-5.8658 -7.67918,-8.87857 -12.93475,-8.95051 -5.25557,-0.0719 -11.50235,1.98149 -18.741,6.16073 l -3.07844,1.77734 c 3.33858,5.7826 5.68832,11.58128 7.12093,17.52131 1.40859,5.89845 1.77431,11.62375 1.11352,17.10838 -1.54842,12.20957 -8.16715,21.6885 -19.94034,28.48576 -8.36188,4.82773 -16.50695,6.47952 -24.34275,5.01289 -7.73268,-1.41609 -13.51922,-5.40382 -17.38718,-11.88502 l 13.29653,-7.67676 c 1.58848,1.06373 3.52065,1.80072 5.82566,2.1958 4.3708,0.74918 9.50076,-0.54847 15.36657,-3.9351 5.07537,-2.93026 8.59972,-6.24069 10.65657,-9.97977 2.05686,-3.73907 2.99346,-7.49716 2.83382,-11.2323 -0.15963,-3.73517 -0.86031,-7.15757 -2.0184,-10.31628 -1.19965,-3.13469 -2.60736,-6.14891 -4.26464,-9.01941 l -20.09281,11.60059 c -2.45448,1.41709 -4.21261,2.59865 -5.29252,3.61043 -4.30381,3.59415 -6.99893,7.47951 -7.99297,11.71435 -0.58167,2.39194 -0.64939,4.66787 -0.25132,6.83425 l -11.44439,6.60742 c -0.1618,-1.26733 -0.2319,-2.55395 -0.18896,-3.86244 0.15214,-4.63626 1.53851,-9.15265 4.09286,-13.56722 L 629.09443,335.01094 618.0508,340 609.76466,325.64799 c 3.11068,-1.24128 6.44013,-2.77513 10.00675,-4.6678 3.56656,-1.89279 7.94247,-4.30819 13.14264,-7.31051 l -0.0244,-0.0423 42.89024,-24.7627 c 11.52358,-6.65314 21.64616,-9.39108 30.41003,-8.23843 8.7639,1.15264 15.95694,6.59526 21.55328,16.2884 z"
         style="fill:none;stroke:#666666;stroke-width:1.12835717;stroke-miterlimit:4;stroke-dasharray:none;stroke-opacity:1"
         inkscape:connector-curvature="0" />
      <path
         id="path4155-1-8"
         d="m 687.80848,227.23887 c 2.61802,4.53455 4.47409,9.28665 5.68237,14.35778 1.18428,5.02951 1.56735,9.24761 1.12353,12.61009 l -13.08476,2.8951 c 0.43301,-7.12809 -1.03097,-13.60599 -4.34553,-19.34698 -3.38663,-5.86581 -7.67918,-8.87857 -12.93475,-8.95052 -5.25557,-0.0719 -11.50235,1.9815 -18.741,6.16073 l -3.07844,1.77734 c 3.33858,5.7826 5.68831,11.58128 7.12093,17.52132 1.40859,5.89845 1.7743,11.62374 1.11352,17.10838 -1.54843,12.20956 -8.16715,21.6885 -19.94034,28.48575 -8.36188,4.82774 -16.50695,6.47952 -24.34275,5.0129 -7.73268,-1.41609 -13.51923,-5.40382 -17.38719,-11.88503 l 13.29653,-7.67675 c 1.58848,1.06373 3.52066,1.80072 5.82566,2.1958 4.37081,0.74918 9.50077,-0.54848 15.36657,-3.9351 5.07537,-2.93027 8.59973,-6.2407 10.65658,-9.97977 2.05686,-3.73908 2.99346,-7.49716 2.83382,-11.23231 -0.15964,-3.73517 -0.86032,-7.15756 -2.0184,-10.31628 -1.19966,-3.13469 -2.60736,-6.1489 -4.26465,-9.01941 l -20.09281,11.60059 c -2.45447,1.41709 -4.21261,2.59865 -5.29251,3.61044 -4.30381,3.59415 -6.99893,7.4795 -7.99297,11.71435 -0.58168,2.39193 -0.64939,4.66787 -0.25132,6.83424 l -11.44439,6.60742 c -0.1618,-1.26733 -0.2319,-2.55394 -0.18896,-3.86243 0.15214,-4.63627 1.5385,-9.15265 4.09285,-13.56723 l -0.36035,-0.62414 -11.04363,4.98905 -8.28613,-14.35201 c 3.11068,-1.24128 6.44013,-2.77513 10.00675,-4.6678 3.56656,-1.89278 7.94246,-4.30819 13.14263,-7.31051 l -0.0244,-0.0423 42.89025,-24.76269 c 11.52357,-6.65314 21.64615,-9.39109 30.41002,-8.23844 8.7639,1.15265 15.95695,6.59527 21.55328,16.2884 z"
         style="fill:none;stroke:#666666;stroke-width:1.12835717;stroke-miterlimit:4;stroke-dasharray:none;stroke-opacity:1"
         inkscape:connector-curvature="0" />
      <path
         id="path4155-4-2"
         d="m -60.790105,252.35097 c 2.618025,-4.53455 5.80543,-8.518 9.593016,-12.09997 3.763543,-3.54036 7.22499,-5.98117 10.358892,-7.27804 l 9.049615,9.88418 c -6.389618,3.18904 -11.26765,7.69585 -14.58221,13.43683 -3.386625,5.86581 -3.849479,11.08965 -1.284003,15.67708 2.565502,4.58742 7.467204,8.97058 14.705851,13.14982 l 3.078444,1.77734 c 3.338585,-5.7826 7.185521,-10.71687 11.613438,-14.92757 4.403911,-4.1691 9.1793058,-7.34846 14.2595276,-9.51853 11.3480071,-4.7638 22.8663684,-3.77129 34.6395594,3.02597 8.361883,4.82773 13.864904,11.05568 16.512672,18.57499 2.639968,7.40474 2.079764,14.4099 -1.599144,21.00026 l -13.296529,-7.67676 c 0.126977,-1.90753 -0.20086,-3.94934 -1.011212,-6.14307 -1.536595,-4.15982 -5.225374,-7.95366 -11.09118,-11.34029 -5.075368,-2.93026 -9.704466,-4.32723 -13.971024,-4.23898 -4.2665615,0.0883 -7.9894583,1.15617 -11.1443684,3.162 -3.1549373,2.00583 -5.7684766,4.32383 -7.9249646,6.90612 -2.114892,2.60628 -4.021427,5.33249 -5.678712,8.203 l 20.0928111,11.60059 c 2.4544718,1.41709 4.3567989,2.3489 5.7729854,2.77823 5.2645265,1.93013 9.9769045,2.3215 14.1414095,1.06494 2.362312,-0.69222 4.367187,-1.77155 6.044288,-3.19947 l 11.444387,6.60742 c -1.016638,0.77379 -2.095829,1.4778 -3.250485,2.09486 -4.091192,2.18638 -8.695678,3.24394 -13.795988,3.2391 l -0.36035,0.62414 9.84246,7.06954 -8.286134,14.35201 c -2.630322,-2.07329 -5.623398,-4.18975 -9.04581,-6.3322 -3.422476,-2.14234 -7.7022333,-4.72428 -12.9024041,-7.7266 l -0.0244,0.0423 -42.8902459,-24.7627 c -11.523576,-6.65314 -18.955993,-14.05057 -22.339704,-22.21663 -3.383732,-8.16609 -2.266808,-17.11676 3.329527,-26.80989 z"
         style="fill:none;stroke:#666666;stroke-width:1.12835717;stroke-miterlimit:4;stroke-dasharray:none;stroke-opacity:1"
         inkscape:connector-curvature="0" />
      <path
         id="path4155-1-1-8"
         d="m -101.16376,321.77334 c 2.618025,-4.53455 5.80543,-8.518 9.593016,-12.09997 3.763543,-3.54037 7.22499,-5.98117 10.358892,-7.27805 l 9.049614,9.88419 c -6.389617,3.18904 -11.26765,7.69584 -14.582209,13.43683 -3.386625,5.8658 -3.849479,11.08965 -1.284004,15.67707 2.565503,4.58742 7.467205,8.97059 14.705852,13.14982 l 3.078443,1.77734 c 3.338585,-5.7826 7.185521,-10.71687 11.613439,-14.92756 4.403911,-4.1691 9.179306,-7.34847 14.259527,-9.51853 11.348007,-4.76381 22.866368,-3.77129 34.6395593,3.02596 8.3618823,4.82774 13.8649036,11.05568 16.512672,18.57499 2.639968,7.40475 2.0797641,14.40991 -1.5991441,21.00026 l -13.2965297,-7.67675 c 0.1269778,-1.90753 -0.2008595,-3.94934 -1.0112111,-6.14307 -1.5365964,-4.15982 -5.2253744,-7.95367 -11.0911804,-11.34029 -5.075368,-2.93027 -9.704466,-4.32724 -13.971024,-4.23898 -4.266561,0.0882 -7.989458,1.15617 -11.144368,3.16199 -3.154938,2.00583 -5.768477,4.32384 -7.924965,6.90612 -2.114892,2.60628 -4.021427,5.3325 -5.678712,8.203 l 20.092811,11.60059 c 2.454472,1.41709 4.356799,2.3489 5.772986,2.77824 5.264526,1.93013 9.976904,2.32149 14.141409,1.06494 2.362312,-0.69223 4.367187,-1.77155 6.044288,-3.19948 l 11.4443874,6.60742 c -1.0166382,0.77379 -2.0958296,1.47781 -3.2504855,2.09487 -4.0911919,2.18637 -8.6956779,3.24393 -13.7959879,3.23909 l -0.36035,0.62414 9.8424603,7.06954 -8.2861343,14.35201 c -2.630322,-2.07329 -5.623398,-4.18975 -9.04581,-6.3322 -3.422476,-2.14233 -7.702233,-4.72428 -12.902404,-7.7266 l -0.0244,0.0423 -42.890245,-24.76269 c -11.523576,-6.65314 -18.955992,-14.05058 -22.339702,-22.21664 -3.38373,-8.16608 -2.26681,-17.11675 3.32952,-26.80989 z"
         style="fill:none;stroke:#666666;stroke-width:1.12835717;stroke-miterlimit:4;stroke-dasharray:none;stroke-opacity:1"
         inkscape:connector-curvature="0" />
      <path
         id="path4155-2-3"
         d="m 294.58566,958.83024 c -5.23605,0 -10.27952,-0.76865 -15.27539,-2.25781 -4.94782,-1.48914 -8.79234,-3.26644 -11.48242,-5.33204 L 271.863,938.4611 c 5.9566,3.93905 12.29862,5.91015 18.92774,5.91015 6.77325,0 11.52866,-2.21108 14.21875,-6.72656 2.69007,-4.5155 4.03515,-10.95208 4.03515,-19.31055 l 0,-3.55468 c -6.67717,0 -12.87384,-0.86441 -18.73437,-2.59375 -5.8125,-1.72935 -10.95361,-4.27528 -15.37305,-7.58985 -9.79958,-7.44576 -14.69922,-17.91721 -14.69922,-31.51172 0,-9.65547 2.64205,-17.5352 7.83008,-23.58789 5.09271,-5.98865 11.43946,-9.00608 18.98633,-9.11523 l 0,15.35351 c -1.71546,0.8438 -3.3198,2.14862 -4.81445,3.94727 -2.83421,3.41064 -4.27539,8.50214 -4.27539,15.27539 0,5.86053 1.10474,10.56793 3.31445,14.21875 2.2097,3.65083 4.996,6.34099 8.31055,8.07031 3.31457,1.72934 6.62879,2.83373 9.94336,3.41016 3.31455,0.52841 6.62879,0.81641 9.94336,0.81641 l 0,-23.20118 c 0,-2.83418 -0.14419,-4.94755 -0.48047,-6.38867 -0.96072,-5.52428 -2.97798,-9.801 -6.14844,-12.77929 -1.78064,-1.69971 -3.7178,-2.89632 -5.79297,-3.63477 l 0,-13.21484 c 1.17844,0.49354 2.32773,1.07614 3.43945,1.76757 3.93905,2.44989 7.15717,5.90871 9.70313,10.32813 l 0.7207,0 1.20117,-12.05859 16.57227,0 c -0.48036,3.31457 -0.81673,6.96488 -0.96094,11 -0.14408,4.03512 -0.24023,9.03247 -0.24023,15.03711 l 0.0488,0 0,49.52539 c 0,13.30628 -2.69016,23.44166 -8.07032,30.45507 -5.38017,7.01344 -13.69014,10.52149 -24.88281,10.52149 z"
         style="fill:none;stroke:#666666;stroke-width:1.12835717;stroke-miterlimit:4;stroke-dasharray:none;stroke-opacity:1"
         inkscape:connector-curvature="0" />
      <path
         id="path4155-1-7-5"
         d="m 374.89402,959.08367 c -5.23605,0 -10.27952,-0.76865 -15.27539,-2.25781 -4.94782,-1.48914 -8.79234,-3.26644 -11.48242,-5.33204 l 4.03515,-12.77929 c 5.9566,3.93905 12.29862,5.91015 18.92774,5.91015 6.77325,0 11.52866,-2.21108 14.21875,-6.72656 2.69007,-4.5155 4.03515,-10.95208 4.03515,-19.31055 l 0,-3.55468 c -6.67717,0 -12.87384,-0.86441 -18.73437,-2.59375 -5.8125,-1.72935 -10.95361,-4.27528 -15.37305,-7.58985 -9.79958,-7.44576 -14.69922,-17.91721 -14.69922,-31.51172 0,-9.65547 2.64205,-17.5352 7.83008,-23.58789 5.09271,-5.98865 11.43946,-9.00608 18.98633,-9.11523 l 0,15.35351 c -1.71546,0.8438 -3.3198,2.14862 -4.81445,3.94727 -2.83421,3.41064 -4.27539,8.50214 -4.27539,15.27539 0,5.86053 1.10474,10.56793 3.31445,14.21875 2.2097,3.65083 4.996,6.34099 8.31055,8.07031 3.31457,1.72934 6.62879,2.83373 9.94336,3.41016 3.31455,0.52841 6.62879,0.81641 9.94336,0.81641 l 0,-23.20118 c 0,-2.83418 -0.14419,-4.94755 -0.48047,-6.38867 -0.96072,-5.52428 -2.97798,-9.801 -6.14844,-12.77929 -1.78064,-1.69971 -3.7178,-2.89632 -5.79297,-3.63477 l 0,-13.21484 c 1.17844,0.49354 2.32773,1.07614 3.43945,1.76757 3.93905,2.44989 7.15717,5.90871 9.70313,10.32813 l 0.7207,0 1.20117,-12.05859 16.57227,0 c -0.48036,3.31457 -0.81673,6.96488 -0.96094,11 -0.14408,4.03512 -0.24023,9.03247 -0.24023,15.03711 l 0.0488,0 0,49.52539 c 0,13.30628 -2.69016,23.44166 -8.07032,30.45507 -5.38017,7.01344 -13.69014,10.52149 -24.88281,10.52149 z"
         style="fill:none;stroke:#666666;stroke-width:1.12835717;stroke-miterlimit:4;stroke-dasharray:none;stroke-opacity:1"
         inkscape:connector-curvature="0" />
      <path
         id="path78"
         d="m 389.51057,-241.22632 c -9.69628,0.35557 -23.20699,11.73438 -23.20704,11.73438 -27.84063,22.92596 -39.45663,50.92246 -44.49804,71.25 -40.58314,-100.88185 -96.7336,-82.31541 -122.38672,-75.00391 -27.43882,7.81083 -31.98242,4.35156 -31.98242,4.35156 31.57324,102.83445 100.83407,106.93999 134.37304,102.26953 l -168.43359,97.37891 0,1.35156 -2.69141,1.55664 0.10352,189.72071 -166.70703,-96.36915 -182.54297,105.24805 c 18.56391,-19.86619 68.01607,-87.34275 -14.3125,-175.83984 0,0 0.72402,5.66418 -19.75977,25.52148 -19.1585,18.56051 -63.31293,57.90525 3.76172,143.49219 -20.12487,-5.79778 -50.17834,-9.73561 -83.95312,2.91211 0,0 -16.60955,6.01103 -21.76563,14.23047 -2.70079,4.30542 -2.26013,9.21747 5.35742,14.1875 22.16262,14.45413 10.74395,1.99165 45.56836,-11.46094 32.18306,-12.43222 68.15775,-1.80054 73.49219,-0.0977 l 0,0.97852 -0.51953,0.29883 -0.13086,222.45312 158.42969,91.59375 -153.54102,88.76368 0,1.35742 -2.97656,1.7207 0.12891,218.23634 c -8.27023,2.4795 -41.48276,11.1101 -71.78516,-0.5957 -34.82441,-13.4526 -23.40576,-25.915 -45.56836,-11.4609 -7.61758,4.97 -8.06017,9.8821 -5.35937,14.1875 5.15607,8.2194 21.76757,14.2305 21.76757,14.2305 33.77479,12.6477 63.82826,8.7098 83.95313,2.9121 -67.07466,85.5869 -22.92022,124.9316 -3.76172,143.4922 20.48379,19.8573 19.75977,25.5214 19.75977,25.5214 77.95078,-83.7912 37.7771,-148.7073 17.52539,-172.2402 l 179.80273,103.668 161.22461,-93.2012 -0.10351,190.52541 172.98242,100.0058 c -34.25369,-4.1955 -101.46627,1.779 -132.40625,102.5508 0,0 4.5436,-3.4592 31.98242,4.3516 25.65312,7.3115 81.80358,25.8779 122.38672,-75.0039 5.04141,20.3275 16.6574,48.324 44.49804,71.25 0,0 13.51076,11.3788 23.20704,11.7344 5.079,0.1862 9.11204,-2.6524 9.60742,-11.7344 1.43634,-26.4205 -3.6465,-10.2999 -32.70899,-33.7324 -25.95917,-20.9304 -34.95639,-55.4394 -36.61132,-62.6836 l 190.07032,-109.5899 0.1113,-185.51171 161.3262,93.0156 187.8672,-108.6113 c 8.1462,8.061 29.0526,31.2061 33.6797,60.8262 5.7619,36.8851 -10.7396,33.227 12.8593,45.1933 8.113,4.112 12.5867,2.0386 14.9649,-2.4531 4.5402,-8.575 1.4414,-25.9648 1.4414,-25.9648 -5.9342,-35.5737 -24.3716,-59.6324 -39.4551,-74.1621 107.65779,15.2948 119.65379,-42.6144 126.14839,-68.4864 6.9551,-27.6681 12.2227,-29.875 12.2227,-29.875 -108.96999,-25.0214 -145.94909,38.5591 -157.15619,68.8262 l -0.1192,-199.09574 -0.9121,-0.52539 0,-6.76367 -160.6895,-92.65625 163.7872,-94.44336 0.123,-208.25977 c 9.4016,28.26008 44.712,98.85588 158.54099,72.71875 0,0 -5.2676,-2.20491 -12.2226,-29.87304 -6.4947,-25.87201 -18.4907,-83.78317 -126.14849,-68.48829 15.0835,-14.52975 33.521,-38.58647 39.4551,-74.16015 0,0 3.0988,-17.39179 -1.4414,-25.9668 -2.3782,-4.49167 -6.8519,-6.56513 -14.9648,-2.45312 -23.599,11.96631 -7.0975,8.30824 -12.8594,45.19336 -5.2454,33.57806 -31.6066,59.04942 -36.3555,63.4082 l -192.332,-111.19336 -159.9414,92.2168 -0.1016,-179.10938 -0.916,-0.52734 0,-7.09375 -187.70119,-108.22071 c 3.31605,-12.01702 13.037,-40.00888 35.42578,-58.06054 29.06249,-23.43253 34.14533,-7.31198 32.70899,-33.73242 -0.49538,-9.08203 -4.52842,-11.92063 -9.60742,-11.73438 z m -226.81836,458.36523 164.4414,94.8125 157.5313,-91.07226 -0.1075,186.26172 161.8282,93.55664 -156.9395,90.72851 0,1.02344 -2.9766,1.72071 0.1075,185.45512 -163.01371,-94.2403 -163.3418,94.1817 -0.10351,-183.03715 -0.62696,-0.36133 -0.004,-7.09375 -156.99805,-90.52344 160.09571,-92.30664 0.10742,-189.10547 z"
         style="fill:none;stroke:#666666;stroke-width:1.12800002;stroke-miterlimit:4;stroke-dasharray:none;stroke-opacity:1"
         inkscape:connector-curvature="0" />
      <path
         sodipodi:nodetypes="cczc"
         inkscape:connector-curvature="0"
         id="path4951"
         d="m 206.32993,-212.27905 c 58.83979,16.83613 71.32052,35.26943 82.97226,48.13815 27.21742,29.36963 -33.63047,3.02678 -44.15573,-2.14286 -10.52526,-5.16965 -63.96825,-58.69042 -38.81653,-45.99529 z"
         style="fill:none;fill-rule:evenodd;stroke:#666666;stroke-width:1px;stroke-linecap:butt;stroke-linejoin:miter;stroke-opacity:1" />
      <path
         sodipodi:nodetypes="cczc"
         inkscape:connector-curvature="0"
         id="path4951-8"
         d="m 999.58877,754.29478 c -44.00041,42.53869 -66.20449,44.13067 -83.17499,47.78701 -39.04356,8.88617 14.19396,-30.63823 23.93363,-37.16855 9.73968,-6.53032 82.81149,-26.05292 59.24136,-10.61846 z"
         style="fill:none;fill-rule:evenodd;stroke:#666666;stroke-width:1px;stroke-linecap:butt;stroke-linejoin:miter;stroke-opacity:1" />
      <path
         inkscape:transform-center-y="412.04374"
         inkscape:transform-center-x="550.89559"
         sodipodi:nodetypes="cczc"
         inkscape:connector-curvature="0"
         id="path4951-8-4"
         d="m -235.10532,957.24495 c -14.83934,-59.3749 -5.11604,-79.40012 0.20273,-95.92517 11.82615,-38.25583 19.43654,27.61139 20.22211,39.31138 0.78557,11.69999 -18.84326,84.74332 -20.42484,56.61379 z"
         style="fill:none;fill-rule:evenodd;stroke:#666666;stroke-width:1px;stroke-linecap:butt;stroke-linejoin:miter;stroke-opacity:1" />
      <path
         sodipodi:nodetypes="cczc"
         inkscape:connector-curvature="0"
         id="path4951-8-7"
         d="m -238.20237,38.074315 c -14.83938,59.374825 -5.11604,79.400115 0.20273,95.925165 11.82614,38.25581 19.4365,-27.61144 20.22209,-39.311409 0.78558,-11.699971 -18.84325,-84.743316 -20.42482,-56.613756 z"
         style="fill:none;fill-rule:evenodd;stroke:#666666;stroke-width:1px;stroke-linecap:butt;stroke-linejoin:miter;stroke-opacity:1" />
      <path
         sodipodi:nodetypes="cczc"
         inkscape:connector-curvature="0"
         id="path4951-8-70"
         d="m 204.13315,1216.0793 c 58.8398,-16.8361 71.32055,-35.2694 82.97225,-48.1381 27.21745,-29.3696 -33.63044,-3.0268 -44.15568,2.1428 -10.52534,5.1697 -63.96831,58.6904 -38.81657,45.9953 z"
         style="fill:none;fill-rule:evenodd;stroke:#666666;stroke-width:1px;stroke-linecap:butt;stroke-linejoin:miter;stroke-opacity:1" />
      <path
         sodipodi:nodetypes="cczc"
         inkscape:connector-curvature="0"
         id="path4951-8-8"
         d="m 1003.1588,243.04295 c -44.0004,-42.53869 -66.20448,-44.13067 -83.17497,-47.78701 -39.04356,-8.88618 14.19395,30.63823 23.93363,37.16855 9.73968,6.53032 82.81154,26.05291 59.24134,10.61846 z"
         style="fill:none;fill-rule:evenodd;stroke:#666666;stroke-width:1px;stroke-linecap:butt;stroke-linejoin:miter;stroke-opacity:1" />
    </g>
  </g>
</svg>
