<?xml version="1.0" encoding="UTF-8" standalone="no"?>
<svg id="svg2" xmlns:rdf="http://www.w3.org/1999/02/22-rdf-syntax-ns#" xmlns="http://www.w3.org/2000/svg" height="449.07mm" width="423.68mm" version="1.1" xmlns:cc="http://creativecommons.org/ns#" xmlns:dc="http://purl.org/dc/elements/1.1/" viewBox="0 0 1501.216 1591.2075">
 <title id="title5082">isaac_snowflake</title>
 <metadata id="metadata7">
  <rdf:RDF>
   <cc:Work rdf:about="">
    <dc:format>image/svg+xml</dc:format>
    <dc:type rdf:resource="http://purl.org/dc/dcmitype/StillImage"/>
    <dc:title>isaac_snowflake</dc:title>
   </cc:Work>
  </rdf:RDF>
 </metadata>
 <g id="layer1" transform="translate(415.71 296.95)">
  <g id="g4448" stroke="#666" fill="none" transform="translate(-6,-2)">
   <path id="path4147-7" d="m-12.341 865.69c1.5852 2.7457 1.8662 5.6342 0.88454 8.6416-0.98165 3.0074-3.0917 5.5014-6.3782 7.3989s-6.5014 2.4778-9.6448 1.7411c-3.1433-0.73675-5.5284-2.466-7.1136-5.2117-1.7293-2.9953-2.1064-6.0502-1.1968-9.1824 0.9336-3.0906 3.0437-5.5846 6.3302-7.4821s6.5014-2.4778 9.6447-1.7411c3.1434 0.73673 5.6005 2.5908 7.3538 5.6277l0.12006 0.20807zm120.59-59.76-99.3 57.34-9.1274-15.81 99.261-57.31l9.1271 15.809z" stroke-width="1.1284"/>
   <path id="path4151-6" d="m74.526 785.47c0.19588-2.8311-0.0158-5.9821-0.67356-9.429-0.61726-3.471-1.7753-6.6297-3.4326-9.5002-2.594-4.493-5.9492-7.3261-10.059-8.3922-4.0684-1.0902-8.3316-0.40382-12.7 2.1181-3.9521 2.2818-6.8591 5.1249-8.6968 8.5711s-2.9947 8.5516-3.423 15.4c-0.50117 9.2198-2.0287 16.758-4.5826 22.614-2.5539 5.8565-6.6509 10.385-12.226 13.604-7.9459 4.5876-15.966 5.7792-24.169 3.5813-8.2025-2.1978-14.529-7.1985-19.02-14.978-2.0416-3.5361-3.4158-7.0693-4.1643-10.575-0.74846-3.5061-1.0616-6.9308-0.98108-10.25l14.396-2.5428c-0.42061 5.9006 0.64531 11.109 3.2633 15.644 2.3779 4.1186 5.4513 6.5597 9.2028 7.3891 3.7515 0.82937 7.3537 0.24729 10.765-1.7222s5.8014-4.4588 7.1944-7.4263c1.3929-2.9675 2.366-7.9113 2.9191-14.831 0.41966-8.7845 1.9232-16.364 4.6177-22.746 2.6945-6.3815 7.2539-11.454 13.661-15.153 9.5683-5.5243 18.499-6.9643 26.817-4.2783 8.3179 2.6859 14.921 8.3586 19.893 16.97 2.1376 3.7025 3.7521 7.6517 4.8016 11.871 1.0496 4.2198 1.358 7.9245 0.81815 11.121l-14.221 2.9412z" stroke-width="1.1284"/>
   <path id="path4163-8" d="m-54.31 530.04c2.1865 1.2892 4.4948 3.1737 6.8177 5.6599s4.4747 5.3485 6.3721 8.635c6.389 11.066 7.1127 22.407 2.1298 34.048-4.9413 11.617-15.441 22.061-31.416 31.284-7.1139 4.1072-14.316 7.1005-21.631 8.9385-7.3146 1.838-14.271 2.4707-20.959 1.8391-6.6224-0.61401-12.727-2.6365-18.224-6.0083-5.4967-3.3718-9.9984-8.0946-13.457-14.085-1.4892-2.5793-2.7111-5.3683-3.5762-8.3079-0.86514-2.9396-1.3588-5.428-1.3915-7.406l14.715-4.3913c0.12705 1.7572 0.4397 3.7399 1.0037 5.9658 0.56404 2.2259 1.4978 4.5157 2.8428 6.8454 4.2753 7.405 11.286 10.901 21.014 10.554 9.7284-0.34717 19.95-3.5864 30.6-9.7351 11.607-6.7012 19.517-14.041 23.688-21.996 4.1712-7.9551 4.1671-15.552-0.03611-22.832-2.1376-3.7025-5.221-7.0254-9.2916-9.9448l10.798-9.063z" stroke-width="1.1284"/>
   <path id="path4147-6" d="m808.32 608.9c1.5852-2.7457 3.9463-4.4333 7.0416-5.0868 3.0953-0.65357 6.3102-0.0731 9.5967 1.8243 3.2865 1.8975 5.3966 4.3915 6.3302 7.4821 0.93361 3.0906 0.62859 6.0207-0.95664 8.7664-1.7293 2.9953-4.1864 4.8493-7.3538 5.6277-3.1433 0.73675-6.3582 0.15639-9.6447-1.7411s-5.3966-4.3915-6.3302-7.4821c-0.93364-3.0906-0.55657-6.1455 1.1968-9.1824l0.12006-0.20807zm-112.04-74.561 99.303 57.332-9.1271 15.809-99.261-57.308 9.1271-15.809z" stroke-width="1.1284"/>
   <path id="path4151-3" d="m695.41 573.78c-2.5498 1.2459-5.1733 3.0038-7.829 5.2978-2.6973 2.27-4.8538 4.8523-6.5111 7.7228-2.594 4.493-3.37 8.8152-2.2382 12.908 1.0901 4.0684 3.8161 7.4173 8.1842 9.9392 3.9521 2.2818 7.8678 3.3777 11.771 3.2461 3.9033-0.13156 8.9033-1.6823 15.048-4.7354 8.2352-4.1759 15.527-6.6221 21.876-7.3386 6.3488-0.71653 12.319 0.56727 17.894 3.7858 7.9459 4.5875 12.988 10.938 15.186 19.14 2.1979 8.2025 1.0302 16.181-3.4612 23.961-2.0416 3.5361-4.4143 6.4928-7.0764 8.8941-2.6622 2.4013-5.4714 4.3848-8.3862 5.9746l-9.4001-11.196c5.3204-2.5861 9.2984-6.1136 11.916-10.648 2.3778-4.1186 2.9552-8.0008 1.7977-11.664-1.1575-3.6636-3.4627-6.4921-6.874-8.4617-3.4113-1.9695-6.7622-2.7948-10.029-2.5174-3.2664 0.27744-8.0344 1.9066-14.304 4.8877-7.8174 4.0288-15.133 6.5166-22.007 7.3738-6.8738 0.85719-13.547-0.55486-19.953-4.2537-9.5683-5.5243-15.281-12.539-17.114-21.085-1.8329-8.5464-0.22183-17.101 4.75-25.713 2.1377-3.7026 4.7505-7.0752 7.8802-10.094 3.1297-3.0189 6.1838-5.1384 9.2216-6.2688l9.6578 10.845z" stroke-width="1.1284"/>
   <path id="path4163-2" d="m538.62 813.07c0.0232-2.5382 0.50106-5.4795 1.4927-8.7342 0.99166-3.2548 2.3946-6.5495 4.2921-9.836 6.3889-11.066 15.849-17.364 28.422-18.869 12.531-1.5291 26.826 2.3419 42.801 11.565 7.1139 4.1072 13.307 8.8478 18.556 14.263 5.249 5.4157 9.2752 11.124 12.072 17.232 2.7795 6.0422 4.0801 12.34 3.9084 18.786-0.17173 6.4462-2.0109 12.706-5.4696 18.697-1.4891 2.5793-3.2935 5.032-5.4067 7.251s-4.0213 3.8908-5.718 4.908l-11.161-10.548c1.4582-0.98855 3.019-2.2507 4.6647-3.8521s3.1618-3.555 4.5069-5.8847c4.2753-7.405 3.7977-15.224-1.3672-23.476-5.1649-8.2515-13.081-15.484-23.731-21.633-11.607-6.7012-21.918-9.8812-30.893-9.516-8.9749 0.36521-15.552 4.1671-19.755 11.447-2.1376 3.7025-3.4737 8.0342-3.9666 13.019l-13.248-4.8197z" stroke-width="1.1284"/>
   <path id="path4147-2" d="m804.52 395.06c1.5852 2.7457 3.9463 4.4333 7.0416 5.0868 3.0953 0.65356 6.3102 0.0731 9.5967-1.8243 3.2865-1.8975 5.3966-4.3915 6.3302-7.4821 0.93361-3.0906 0.62859-6.0207-0.95664-8.7664-1.7293-2.9953-4.1864-4.8493-7.3538-5.6277-3.1433-0.73675-6.3582-0.15639-9.6447 1.7411s-5.3966 4.3915-6.3302 7.4821c-0.93365 3.0906-0.55657 6.1455 1.1968 9.1824l0.12005 0.20807zm-112.04 74.561 99.303-57.332-9.127-15.809-99.261 57.308 9.1271 15.809z" stroke-width="1.1284"/>
   <path id="path4151-1" d="m691.62 430.18c-2.5498-1.2459-5.1733-3.0038-7.829-5.2978-2.6973-2.27-4.8538-4.8523-6.5111-7.7228-2.594-4.493-3.37-8.8152-2.2382-12.908 1.0901-4.0684 3.8161-7.4173 8.1842-9.9392 3.9521-2.2818 7.8678-3.3777 11.771-3.2461 3.9033 0.13156 8.9033 1.6823 15.048 4.7354 8.2352 4.1759 15.527 6.6221 21.876 7.3386 6.3488 0.71653 12.319-0.56727 17.894-3.7858 7.9459-4.5875 12.988-10.938 15.186-19.14 2.1979-8.2025 1.0303-16.181-3.4612-23.961-2.0416-3.5361-4.4143-6.4928-7.0764-8.8941-2.6622-2.4013-5.4714-4.3848-8.3862-5.9746l-9.4001 11.196c5.3204 2.586 9.2984 6.1136 11.916 10.648 2.3778 4.1186 2.9552 8.0008 1.7977 11.664-1.1575 3.6636-3.4627 6.4921-6.874 8.4617-3.4113 1.9695-6.7622 2.7948-10.029 2.5174-3.2664-0.27744-8.0344-1.9066-14.304-4.8877-7.8174-4.0288-15.133-6.5166-22.007-7.3738-6.8738-0.85719-13.547 0.55486-19.953 4.2537-9.5683 5.5243-15.281 12.539-17.114 21.085-1.8329 8.5464-0.22183 17.101 4.75 25.713 2.1377 3.7025 4.7505 7.0752 7.8802 10.094 3.1297 3.0189 6.1838 5.1384 9.2216 6.2688l9.6578-10.845z" stroke-width="1.1284"/>
   <path id="path4163-80" d="m534.83 190.89c0.0232 2.5382 0.50106 5.4795 1.4927 8.7342 0.99167 3.2548 2.3946 6.5495 4.2921 9.836 6.3889 11.066 15.849 17.364 28.422 18.869 12.531 1.5291 26.826-2.3419 42.801-11.565 7.1139-4.1072 13.307-8.8478 18.556-14.263 5.249-5.4157 9.2752-11.124 12.072-17.232 2.7795-6.0422 4.0801-12.34 3.9084-18.786-0.17173-6.4462-2.0109-12.706-5.4696-18.697-1.4891-2.5793-3.2935-5.032-5.4067-7.251s-4.0213-3.8908-5.718-4.908l-11.161 10.548c1.4582 0.98855 3.019 2.2507 4.6647 3.8521s3.1618 3.555 4.5069 5.8847c4.2753 7.405 3.7977 15.224-1.3672 23.476-5.1649 8.2515-13.081 15.484-23.731 21.633-11.607 6.7012-21.918 9.8812-30.893 9.516-8.9749-0.3652-15.552-4.1671-19.755-11.447-2.1376-3.7025-3.4737-8.0342-3.9666-13.019l-13.248 4.8197z" stroke-width="1.1284"/>
   <path id="path4147-7-1" d="m172.1 977.21c-3.1705 0-5.8125 1.2009-7.9261 3.5548-2.1136 2.3538-3.2185 5.4282-3.2185 9.2231s1.1049 6.8693 3.3146 9.2232c2.2097 2.3538 4.8998 3.5548 8.0702 3.5548 3.4587 0 6.2929-1.201 8.5506-3.5548 2.2097-2.3538 3.3146-5.4282 3.3146-9.2232 0-3.7949-1.1049-6.8693-3.3146-9.2231s-5.0439-3.5548-8.5506-3.5548h-0.24018zm-8.5506-134.31v114.66h18.254v-114.62h-18.254z" stroke-width="1.1284"/>
   <path id="path4151-6-6" d="m198.13 861.87c2.3538-1.5852 5.188-2.9783 8.5026-4.1312 3.3146-1.2009 6.6291-1.7774 9.9437-1.7774 5.188 0 9.3192 1.4891 12.298 4.5155 2.9783 2.9783 4.5155 7.0134 4.5155 12.057 0 4.5635-1.0088 8.5026-3.0744 11.817-2.0656 3.3146-5.9086 6.8693-11.625 10.664-7.734 5.0439-13.498 10.136-17.293 15.276-3.7949 5.14-5.6684 10.952-5.6684 17.389 0 9.1751 2.9783 16.717 8.9829 22.722 6.0046 6.0047 13.498 8.983 22.481 8.983 4.0832 0 7.8301-0.57645 11.241-1.6813 3.4106-1.1049 6.5331-2.546 9.3672-4.2753l-4.9959-13.739c-4.8998 3.3146-9.9437 4.9959-15.18 4.9959-4.7557 0-8.4065-1.4411-11.001-4.2753-2.594-2.8342-3.891-6.2448-3.891-10.184 0-3.939 0.96073-7.2536 2.8342-9.9437 1.8734-2.6901 5.6684-6.0046 11.385-9.9437 7.3977-4.7557 13.21-9.8476 17.389-15.372 4.1792-5.5243 6.2929-12.009 6.2929-19.407 0-11.049-3.2185-19.503-9.7035-25.364-6.485-5.8606-14.699-8.7428-24.643-8.7428-4.2753 0-8.5026 0.57646-12.682 1.7774-4.1793 1.2009-7.5418 2.7862-10.04 4.8518l4.5635 13.787z" stroke-width="1.1284"/>
   <path id="path4163-8-4" d="m483.76 845.73c-2.2097-1.249-4.9959-2.3058-8.3104-3.0744-3.3146-0.76859-6.8693-1.2009-10.664-1.2009-12.778 0-22.962 5.0439-30.552 15.18-7.5899 10.088-11.385 24.403-11.385 42.849 0 8.2144 1.0088 15.948 3.0744 23.202 2.0656 7.2536 4.9958 13.595 8.8869 19.071 3.843 5.4282 8.6467 9.7035 14.315 12.778 5.6684 3.0744 12.009 4.6116 18.927 4.6116 2.9783 0 6.0046-0.33627 8.9829-1.0568 2.9783-0.72057 5.3802-1.5372 7.1095-2.4979l-3.5548-14.94c-1.5852 0.76859-3.4587 1.4891-5.6684 2.1136-2.2097 0.62447-4.6596 0.96072-7.3497 0.96072-8.5506 0-15.084-4.3233-19.647-12.922-4.5636-8.5986-6.8693-19.071-6.8693-31.368 0-13.402 2.4019-23.923 7.2056-31.512 4.8037-7.5899 11.385-11.385 19.791-11.385 4.2753 0 8.6947 1.0088 13.258 3.0744l2.4499-13.883z" stroke-width="1.1284"/>
   <path id="path4147-6-7" d="m-15.85 138.11c1.5852-2.7457 1.8662-5.6342 0.88456-8.6416-0.98165-3.0074-3.0917-5.5014-6.3782-7.3989s-6.5014-2.4778-9.6448-1.7411c-3.1433 0.73675-5.5284 2.466-7.1136 5.2117-1.7293 2.9953-2.1064 6.0502-1.1968 9.1824 0.9336 3.0906 3.0437 5.5846 6.3302 7.4821s6.5014 2.4778 9.6447 1.7411c3.1433-0.73673 5.6004-2.5908 7.3538-5.6277l0.12006-0.20807zm120.59 59.751-99.303-57.332-9.1271 15.809 99.261 57.308 9.1271-15.809z" stroke-width="1.1284"/>
   <path id="path4151-3-6" d="m71.017 218.32c0.19588 2.8311-0.0158 5.9821-0.67356 9.429-0.61726 3.471-1.7753 6.6297-3.4326 9.5002-2.594 4.493-5.9492 7.3261-10.059 8.3922-4.0684 1.0901-8.3315 0.40379-12.7-2.1182-3.9521-2.2818-6.8591-5.1249-8.6968-8.571-1.8377-3.4462-2.9947-8.5516-3.423-15.4-0.50115-9.2198-2.0287-16.758-4.5826-22.614-2.5539-5.8565-6.6509-10.385-12.226-13.604-7.9459-4.5876-15.966-5.7792-24.169-3.5813-8.2025 2.1978-14.529 7.1985-19.02 14.978-2.0416 3.5361-3.4158 7.0693-4.1643 10.575-0.74846 3.5061-1.0616 6.9308-0.98106 10.25l14.396 2.5428c-0.42061-5.9006 0.64531-11.109 3.2633-15.644 2.3779-4.1186 5.4513-6.5597 9.2028-7.3891 3.7515-0.82936 7.3537-0.24726 10.765 1.7223 3.4113 1.9695 5.8014 4.4588 7.1944 7.4263 1.3929 2.9675 2.366 7.9113 2.9191 14.831 0.41966 8.7844 1.9232 16.364 4.6177 22.746 2.6946 6.3815 7.2539 11.454 13.661 15.153 9.5683 5.5243 18.499 6.9643 26.817 4.2783 8.3179-2.6859 14.921-8.3586 19.893-16.97 2.1376-3.7026 3.7521-7.6517 4.8016-11.871 1.0496-4.2198 1.358-7.9245 0.81815-11.121l-14.221-2.9412z" stroke-width="1.1284"/>
   <path id="path4163-2-9" d="m-57.819 473.75c2.1865-1.2892 4.4948-3.1737 6.8177-5.6599s4.4747-5.3485 6.3722-8.635c6.3889-11.066 7.1127-22.407 2.1298-34.048-4.9413-11.617-15.441-22.061-31.416-31.284-7.1139-4.1072-14.316-7.1006-21.631-8.9385-7.3146-1.838-14.271-2.4707-20.959-1.8391-6.6225 0.61398-12.727 2.6365-18.224 6.0082-5.4966 3.3718-9.9984 8.0946-13.457 14.085-1.4892 2.5793-2.7111 5.3683-3.5762 8.3079-0.86512 2.9396-1.3588 5.428-1.3915 7.406l14.715 4.3913c0.12705-1.7572 0.43972-3.7399 1.0037-5.9658 0.56402-2.2259 1.4978-4.5157 2.8428-6.8454 4.2753-7.405 11.286-10.901 21.014-10.554 9.7284 0.34717 19.95 3.5863 30.6 9.7351 11.607 6.7012 19.517 14.041 23.688 21.996 4.1712 7.9551 4.1671 15.552-0.03611 22.832-2.1376 3.7025-5.221 7.0254-9.2916 9.9448l10.798 9.063z" stroke-width="1.1284"/>
   <path id="path4147" d="m175.6 26.912c-3.1705 0-5.8125-1.2009-7.9261-3.5548-2.1136-2.3538-3.2185-5.4282-3.2185-9.2231s1.1049-6.8693 3.3146-9.2231 4.8998-3.5547 8.0702-3.5547c3.4587 0 6.2929 1.2009 8.5506 3.5547 2.2097 2.3538 3.3146 5.4282 3.3146 9.2231s-1.1049 6.8693-3.3146 9.2231-5.0439 3.5548-8.5506 3.5548h-0.24018zm-8.5506 134.31v-114.66h18.254v114.62h-18.254z" stroke-width="1.1284"/>
   <path id="path4151" d="m201.64 142.25c2.3538 1.5852 5.188 2.9783 8.5026 4.1312 3.3146 1.2009 6.6292 1.7774 9.9437 1.7774 5.188 0 9.3192-1.4891 12.298-4.5155 2.9783-2.9783 4.5155-7.0134 4.5155-12.057 0-4.5635-1.0088-8.5026-3.0744-11.817-2.0656-3.3146-5.9086-6.8693-11.625-10.664-7.734-5.0439-13.498-10.136-17.293-15.276-3.7949-5.14-5.6684-10.952-5.6684-17.389 0-9.1751 2.9783-16.717 8.9829-22.722 6.0046-6.0047 13.498-8.983 22.481-8.983 4.0832 0 7.8301 0.57646 11.241 1.6813 3.4106 1.1049 6.533 2.546 9.3672 4.2753l-4.9959 13.739c-4.8998-3.3146-9.9437-4.9959-15.18-4.9959-4.7557 0-8.4065 1.4411-11.001 4.2753-2.594 2.8342-3.891 6.2448-3.891 10.184 0 3.939 0.96072 7.2536 2.8342 9.9437s5.6684 6.0046 11.385 9.9437c7.3977 4.7557 13.21 9.8476 17.389 15.372 4.1792 5.5243 6.2929 12.009 6.2929 19.407 0 11.049-3.2185 19.503-9.7035 25.364-6.485 5.8606-14.699 8.7428-24.643 8.7428-4.2753 0-8.5026-0.57645-12.682-1.7774-4.1792-1.2009-7.5418-2.7862-10.04-4.8518l4.5635-13.787z" stroke-width="1.1284"/>
   <path id="path4163" d="m487.27 158.39c-2.2097 1.249-4.9959 2.3058-8.3104 3.0744-3.3146 0.76859-6.8693 1.2009-10.664 1.2009-12.778 0-22.962-5.0439-30.552-15.18-7.5899-10.088-11.385-24.403-11.385-42.849 0-8.2144 1.0088-15.948 3.0744-23.202 2.0656-7.2536 4.9958-13.595 8.8869-19.071 3.843-5.4282 8.6467-9.7035 14.315-12.778 5.6684-3.0744 12.009-4.6116 18.927-4.6116 2.9783 0 6.0046 0.33627 8.9829 1.0568 2.9783 0.72057 5.3802 1.5372 7.1095 2.4979l-3.5548 14.94c-1.5852-0.76859-3.4587-1.4891-5.6684-2.1136-2.2097-0.62448-4.6596-0.96073-7.3497-0.96073-8.5506 0-15.084 4.3233-19.647 12.922-4.5636 8.5986-6.8693 19.071-6.8693 31.368 0 13.402 2.4019 23.923 7.2056 31.512 4.8037 7.5899 11.385 11.385 19.791 11.385 4.2753 0 8.6947-1.0088 13.258-3.0744l2.4499 13.883z" stroke-width="1.1284"/>
   <path id="path4155" d="m298.53 44.637c-5.236 0-10.28 0.76865-15.275 2.2578-4.9478 1.4891-8.7923 3.2664-11.482 5.332l4.0352 12.779c5.9566-3.939 12.299-5.9102 18.928-5.9102 6.7732 0 11.529 2.2111 14.219 6.7266 2.6901 4.5155 4.0352 10.952 4.0352 19.311v3.5547c-6.6772 0-12.874 0.86441-18.734 2.5938-5.8125 1.7294-10.954 4.2753-15.373 7.5898-9.7996 7.4458-14.699 17.917-14.699 31.512 0 9.6555 2.642 17.535 7.8301 23.588 5.0927 5.9886 11.439 9.0061 18.986 9.1152v-15.354c-1.7155-0.8438-3.3198-2.1486-4.8144-3.9473-2.8342-3.4106-4.2754-8.5021-4.2754-15.275 0-5.8605 1.1047-10.568 3.3144-14.219 2.2097-3.6508 4.996-6.341 8.3106-8.0703s6.6288-2.8337 9.9434-3.4102c3.3146-0.52841 6.6288-0.81641 9.9434-0.81641v23.201c0 2.8342-0.14419 4.9476-0.48047 6.3887-0.96072 5.5243-2.978 9.801-6.1484 12.779-1.7806 1.6997-3.7178 2.8963-5.793 3.6348v13.215c1.1784-0.49354 2.3277-1.0761 3.4394-1.7676 3.939-2.4499 7.1572-5.9087 9.7031-10.328h0.7207l1.2012 12.059h16.572c-0.48036-3.3146-0.81673-6.9649-0.96094-11-0.14408-4.0351-0.24023-9.0325-0.24023-15.037h0.0488v-49.525c0-13.306-2.6902-23.442-8.0703-30.455-5.3802-7.0134-13.69-10.521-24.883-10.521z" stroke-width="1.1284"/>
   <path id="path4155-1" d="m378.84 44.384c-5.236 0-10.28 0.76865-15.275 2.2578-4.9478 1.4891-8.7923 3.2664-11.482 5.332l4.0352 12.779c5.9566-3.939 12.299-5.9102 18.928-5.9102 6.7732 0 11.529 2.2111 14.219 6.7266 2.6901 4.5155 4.0352 10.952 4.0352 19.311v3.5547c-6.6772 0-12.874 0.86441-18.734 2.5938-5.8125 1.7294-10.954 4.2753-15.373 7.5898-9.7996 7.4458-14.699 17.917-14.699 31.512 0 9.6555 2.642 17.535 7.8301 23.588 5.0927 5.9886 11.439 9.0061 18.986 9.1152v-15.354c-1.7155-0.8438-3.3198-2.1486-4.8144-3.9473-2.8342-3.4106-4.2754-8.5021-4.2754-15.275 0-5.8605 1.1047-10.568 3.3144-14.219 2.2097-3.6508 4.996-6.341 8.3106-8.0703s6.6288-2.8337 9.9434-3.4102c3.3146-0.52841 6.6288-0.81641 9.9434-0.81641v23.201c0 2.8342-0.14419 4.9476-0.48047 6.3887-0.96072 5.5243-2.978 9.801-6.1484 12.779-1.7806 1.6997-3.7178 2.8963-5.793 3.6348v13.215c1.1784-0.49354 2.3277-1.0761 3.4394-1.7676 3.939-2.4499 7.1572-5.9087 9.7031-10.328h0.7207l1.2012 12.059h16.572c-0.48036-3.3146-0.81673-6.9649-0.96094-11-0.14408-4.0351-0.24023-9.0325-0.24023-15.037h0.0488v-49.525c0-13.306-2.6902-23.442-8.0703-30.455-5.3802-7.0134-13.69-10.521-24.883-10.521z" stroke-width="1.1284"/>
   <path id="path4155-4" d="m731.39 705.24c2.618-4.5346 4.4741-9.2866 5.6824-14.358 1.1843-5.0295 1.5674-9.2476 1.1235-12.61l-13.085-2.8951c0.43302 7.1281-1.031 13.606-4.3455 19.347-3.3866 5.8658-7.6792 8.8786-12.935 8.9505-5.2556 0.0719-11.502-1.9815-18.741-6.1607l-3.0784-1.7773c3.3386-5.7826 5.6883-11.581 7.1209-17.521 1.4086-5.8984 1.7743-11.624 1.1135-17.108-1.5484-12.21-8.1672-21.688-19.94-28.486-8.3619-4.8277-16.507-6.4795-24.343-5.0129-7.7327 1.4161-13.519 5.4038-17.387 11.885l13.297 7.6768c1.5885-1.0637 3.5206-1.8007 5.8257-2.1958 4.3708-0.74918 9.5008 0.54847 15.367 3.9351 5.0754 2.9303 8.5997 6.2407 10.657 9.9798 2.0569 3.7391 2.9935 7.4972 2.8338 11.232-0.15963 3.7352-0.86031 7.1576-2.0184 10.316-1.1996 3.1347-2.6074 6.1489-4.2646 9.0194l-20.093-11.601c-2.4545-1.4171-4.2126-2.5986-5.2925-3.6104-4.3038-3.5942-6.9989-7.4795-7.993-11.714-0.58167-2.3919-0.64939-4.6679-0.25132-6.8342l-11.444-6.6074c-0.1618 1.2673-0.2319 2.554-0.18896 3.8624 0.15214 4.6363 1.5385 9.1526 4.0929 13.567l-0.36035 0.62415-11.044-4.9891-8.2861 14.352c3.1107 1.2413 6.4401 2.7751 10.007 4.6678 3.5666 1.8928 7.9425 4.3082 13.143 7.3105l-0.0244 0.0423 42.89 24.763c11.524 6.6531 21.646 9.3911 30.41 8.2384 8.7639-1.1526 15.957-6.5953 21.553-16.288z" stroke-width="1.1284"/>
   <path id="path4155-1-1" d="m691.46 774.92c2.618-4.5346 4.4741-9.2866 5.6824-14.358 1.1843-5.0295 1.5674-9.2476 1.1235-12.61l-13.085-2.8951c0.43301 7.1281-1.031 13.606-4.3455 19.347-3.3866 5.8658-7.6792 8.8786-12.935 8.9505-5.2556 0.0719-11.502-1.9815-18.741-6.1607l-3.0784-1.7773c3.3386-5.7826 5.6883-11.581 7.1209-17.521 1.4086-5.8984 1.7743-11.624 1.1135-17.108-1.5484-12.21-8.1672-21.688-19.94-28.486-8.3619-4.8277-16.507-6.4795-24.343-5.0129-7.7327 1.4161-13.519 5.4038-17.387 11.885l13.297 7.6768c1.5885-1.0637 3.5207-1.8007 5.8257-2.1958 4.3708-0.74918 9.5008 0.54848 15.367 3.9351 5.0754 2.9303 8.5997 6.2407 10.657 9.9798 2.0569 3.7391 2.9935 7.4972 2.8338 11.232-0.15964 3.7352-0.86032 7.1576-2.0184 10.316-1.1997 3.1347-2.6074 6.1489-4.2646 9.0194l-20.093-11.601c-2.4545-1.4171-4.2126-2.5986-5.2925-3.6104-4.3038-3.5942-6.9989-7.4795-7.993-11.714-0.58168-2.3919-0.64939-4.6679-0.25132-6.8342l-11.444-6.6074c-0.1618 1.2673-0.2319 2.5539-0.18896 3.8624 0.15214 4.6363 1.5385 9.1526 4.0928 13.567l-0.36035 0.62414-11.044-4.989-8.2861 14.352c3.1107 1.2413 6.4401 2.7751 10.007 4.6678 3.5666 1.8928 7.9425 4.3082 13.143 7.3105l-0.0244 0.0423 42.89 24.763c11.524 6.6531 21.646 9.3911 30.41 8.2384 8.7639-1.1526 15.957-6.5953 21.553-16.288z" stroke-width="1.1284"/>
   <path id="path4155-2" d="m-58.125 750.72c2.618 4.5346 5.8054 8.518 9.593 12.1 3.7635 3.5404 7.225 5.9812 10.359 7.278l9.0496-9.8842c-6.3896-3.189-11.268-7.6958-14.582-13.437-3.3866-5.8658-3.8495-11.09-1.284-15.677 2.5655-4.5874 7.4672-8.9706 14.706-13.15l3.0784-1.7773c3.3386 5.7826 7.1855 10.717 11.613 14.928 4.4039 4.1691 9.1793 7.3485 14.26 9.5185 11.348 4.7638 22.866 3.7713 34.64-3.026 8.3619-4.8277 13.865-11.056 16.513-18.575 2.64-7.4047 2.0798-14.41-1.5991-21l-13.297 7.6768c0.12698 1.9075-0.20086 3.9493-1.0112 6.1431-1.5366 4.1598-5.2254 7.9537-11.091 11.34-5.0754 2.9303-9.7045 4.3272-13.971 4.239-4.2666-0.0882-7.9895-1.1562-11.144-3.162-3.1549-2.0058-5.7685-4.3238-7.925-6.9061-2.1149-2.6063-4.0214-5.3325-5.6787-8.203l20.092-11.6c2.4545-1.4171 4.3568-2.3489 5.773-2.7782 5.2645-1.9301 9.9769-2.3215 14.141-1.0649 2.3623 0.69223 4.3672 1.7716 6.0443 3.1995l11.444-6.6074c-1.0166-0.77379-2.0958-1.4778-3.2505-2.0949-4.0912-2.1864-8.6957-3.2439-13.796-3.2391l-0.36035-0.62415 9.8425-7.0695-8.2861-14.352c-2.6303 2.0733-5.6234 4.1898-9.0458 6.3322-3.4225 2.1423-7.7022 4.7243-12.902 7.7266l-0.0244-0.0423-42.89 24.763c-11.524 6.6531-18.956 14.051-22.34 22.217-3.3837 8.1661-2.2668 17.117 3.3295 26.81z" stroke-width="1.1284"/>
   <path id="path4155-1-7" d="m-98.499 681.3c2.618 4.5346 5.8054 8.518 9.593 12.1 3.7635 3.5404 7.225 5.9812 10.359 7.278l9.0496-9.8842c-6.3896-3.189-11.268-7.6958-14.582-13.437-3.3866-5.8658-3.8495-11.09-1.284-15.677 2.5655-4.5874 7.4672-8.9706 14.706-13.15l3.0784-1.7773c3.3386 5.7826 7.1855 10.717 11.613 14.928 4.4039 4.1691 9.1793 7.3485 14.26 9.5185 11.348 4.7638 22.866 3.7713 34.64-3.026 8.3619-4.8277 13.865-11.056 16.513-18.575 2.64-7.4047 2.0798-14.41-1.5991-21l-13.297 7.6768c0.12698 1.9075-0.20086 3.9493-1.0112 6.1431-1.5366 4.1598-5.2254 7.9537-11.091 11.34-5.0754 2.9303-9.7045 4.3272-13.971 4.239-4.2666-0.0883-7.9895-1.1562-11.144-3.162-3.1549-2.0058-5.7685-4.3238-7.925-6.9061-2.1149-2.6063-4.0214-5.3325-5.6787-8.203l20.093-11.601c2.4545-1.4171 4.3568-2.3489 5.773-2.7782 5.2645-1.9301 9.9769-2.3215 14.141-1.0649 2.3623 0.69222 4.3672 1.7716 6.0443 3.1995l11.444-6.6074c-1.0166-0.77379-2.0958-1.4778-3.2505-2.0949-4.0912-2.1864-8.6957-3.2439-13.796-3.2391l-0.36035-0.62414 9.8425-7.0695-8.2861-14.352c-2.6303 2.0733-5.6234 4.1898-9.0458 6.3322-3.4225 2.1423-7.7022 4.7243-12.902 7.7266l-0.0244-0.0423-42.89 24.763c-11.524 6.6531-18.956 14.051-22.34 22.217-3.3837 8.1661-2.2668 17.117 3.3295 26.81z" stroke-width="1.1284"/>
   <path id="path4155-19" d="m727.74 296.91c2.618 4.5346 4.4741 9.2866 5.6824 14.358 1.1843 5.0295 1.5674 9.2476 1.1235 12.61l-13.085 2.8951c0.43302-7.1281-1.031-13.606-4.3455-19.347-3.3866-5.8658-7.6792-8.8786-12.935-8.9505-5.2556-0.0719-11.502 1.9815-18.741 6.1607l-3.0784 1.7773c3.3386 5.7826 5.6883 11.581 7.1209 17.521 1.4086 5.8984 1.7743 11.624 1.1135 17.108-1.5484 12.21-8.1672 21.688-19.94 28.486-8.3619 4.8277-16.507 6.4795-24.343 5.0129-7.7327-1.4161-13.519-5.4038-17.387-11.885l13.297-7.6768c1.5885 1.0637 3.5206 1.8007 5.8257 2.1958 4.3708 0.74918 9.5008-0.54847 15.367-3.9351 5.0754-2.9303 8.5997-6.2407 10.657-9.9798 2.0569-3.7391 2.9935-7.4972 2.8338-11.232-0.15963-3.7352-0.86031-7.1576-2.0184-10.316-1.1996-3.1347-2.6074-6.1489-4.2646-9.0194l-20.093 11.601c-2.4545 1.4171-4.2126 2.5986-5.2925 3.6104-4.3038 3.5942-6.9989 7.4795-7.993 11.714-0.58167 2.3919-0.64939 4.6679-0.25132 6.8342l-11.444 6.6074c-0.1618-1.2673-0.2319-2.554-0.18896-3.8624 0.15214-4.6363 1.5385-9.1526 4.0929-13.567l-0.36-0.62-11.04 4.99-8.29-14.35c3.1107-1.2413 6.4401-2.7751 10.007-4.6678 3.5666-1.8928 7.9425-4.3082 13.143-7.3105l-0.0244-0.0423 42.89-24.763c11.524-6.6531 21.646-9.3911 30.41-8.2384 8.7639 1.1526 15.957 6.5953 21.553 16.288z" stroke-width="1.1284"/>
   <path id="path4155-1-8" d="m687.81 227.24c2.618 4.5346 4.4741 9.2866 5.6824 14.358 1.1843 5.0295 1.5674 9.2476 1.1235 12.61l-13.085 2.8951c0.43301-7.1281-1.031-13.606-4.3455-19.347-3.3866-5.8658-7.6792-8.8786-12.935-8.9505-5.2556-0.0719-11.502 1.9815-18.741 6.1607l-3.0784 1.7773c3.3386 5.7826 5.6883 11.581 7.1209 17.521 1.4086 5.8984 1.7743 11.624 1.1135 17.108-1.5484 12.21-8.1672 21.688-19.94 28.486-8.3619 4.8277-16.507 6.4795-24.343 5.0129-7.7327-1.4161-13.519-5.4038-17.387-11.885l13.297-7.6768c1.5885 1.0637 3.5207 1.8007 5.8257 2.1958 4.3708 0.74918 9.5008-0.54848 15.367-3.9351 5.0754-2.9303 8.5997-6.2407 10.657-9.9798 2.0569-3.7391 2.9935-7.4972 2.8338-11.232-0.15964-3.7352-0.86032-7.1576-2.0184-10.316-1.1997-3.1347-2.6074-6.1489-4.2646-9.0194l-20.093 11.601c-2.4545 1.4171-4.2126 2.5986-5.2925 3.6104-4.3038 3.5942-6.9989 7.4795-7.993 11.714-0.58168 2.3919-0.64939 4.6679-0.25132 6.8342l-11.444 6.6074c-0.1618-1.2673-0.2319-2.5539-0.18896-3.8624 0.15214-4.6363 1.5385-9.1526 4.0928-13.567l-0.36035-0.62414-11.044 4.989-8.2861-14.352c3.1107-1.2413 6.4401-2.7751 10.007-4.6678 3.5666-1.8928 7.9425-4.3082 13.143-7.3105l-0.0244-0.0423 42.89-24.763c11.524-6.6531 21.646-9.3911 30.41-8.2384 8.7639 1.1526 15.957 6.5953 21.553 16.288z" stroke-width="1.1284"/>
   <path id="path4155-4-2" d="m-60.79 252.35c2.618-4.5346 5.8054-8.518 9.593-12.1 3.7635-3.5404 7.225-5.9812 10.359-7.278l9.0496 9.8842c-6.3896 3.189-11.268 7.6958-14.582 13.437-3.3866 5.8658-3.8495 11.09-1.284 15.677 2.5655 4.5874 7.4672 8.9706 14.706 13.15l3.0784 1.7773c3.3386-5.7826 7.1855-10.717 11.613-14.928 4.4039-4.1691 9.1793-7.3485 14.26-9.5185 11.348-4.7638 22.866-3.7713 34.64 3.026 8.3619 4.8277 13.865 11.056 16.513 18.575 2.64 7.4047 2.0798 14.41-1.5991 21l-13.297-7.6768c0.12698-1.9075-0.20086-3.9493-1.0112-6.1431-1.5366-4.1598-5.2254-7.9537-11.091-11.34-5.0754-2.9303-9.7045-4.3272-13.971-4.239-4.2666 0.0883-7.9895 1.1562-11.144 3.162-3.1549 2.0058-5.7685 4.3238-7.925 6.9061-2.1149 2.6063-4.0214 5.3325-5.6787 8.203l20.093 11.601c2.4545 1.4171 4.3568 2.3489 5.773 2.7782 5.2645 1.9301 9.9769 2.3215 14.141 1.0649 2.3623-0.69222 4.3672-1.7716 6.0443-3.1995l11.444 6.6074c-1.0166 0.77379-2.0958 1.4778-3.2505 2.0949-4.0912 2.1864-8.6957 3.2439-13.796 3.2391l-0.36035 0.62414 9.8425 7.0695-8.2861 14.352c-2.6303-2.0733-5.6234-4.1898-9.0458-6.3322-3.4225-2.1423-7.7022-4.7243-12.902-7.7266l-0.0244 0.0423-42.89-24.763c-11.524-6.6531-18.956-14.051-22.34-22.217-3.3837-8.1661-2.2668-17.117 3.3295-26.81z" stroke-width="1.1284"/>
   <path id="path4155-1-1-8" d="m-101.16 321.77c2.618-4.5346 5.8054-8.518 9.593-12.1 3.7635-3.5404 7.225-5.9812 10.359-7.278l9.0496 9.8842c-6.3896 3.189-11.268 7.6958-14.582 13.437-3.3866 5.8658-3.8495 11.09-1.284 15.677 2.5655 4.5874 7.4672 8.9706 14.706 13.15l3.0784 1.7773c3.3386-5.7826 7.1855-10.717 11.613-14.928 4.4039-4.1691 9.1793-7.3485 14.26-9.5185 11.348-4.7638 22.866-3.7713 34.64 3.026 8.3619 4.8277 13.865 11.056 16.513 18.575 2.64 7.4048 2.0798 14.41-1.5991 21l-13.297-7.6768c0.12698-1.9075-0.20086-3.9493-1.0112-6.1431-1.5366-4.1598-5.2254-7.9537-11.091-11.34-5.0754-2.9303-9.7045-4.3272-13.971-4.239-4.2666 0.0882-7.9895 1.1562-11.144 3.162-3.1549 2.0058-5.7685 4.3238-7.925 6.9061-2.1149 2.6063-4.0214 5.3325-5.6787 8.203l20.093 11.601c2.4545 1.4171 4.3568 2.3489 5.773 2.7782 5.2645 1.9301 9.9769 2.3215 14.141 1.0649 2.3623-0.69223 4.3672-1.7716 6.0443-3.1995l11.444 6.6074c-1.0166 0.77379-2.0958 1.4778-3.2505 2.0949-4.0912 2.1864-8.6957 3.2439-13.796 3.2391l-0.36035 0.62414 9.8425 7.0695-8.2861 14.352c-2.6303-2.0733-5.6234-4.1898-9.0458-6.3322-3.4225-2.1423-7.7022-4.7243-12.902-7.7266l-0.0244 0.0423-42.89-24.763c-11.524-6.6531-18.956-14.051-22.34-22.217-3.3837-8.1661-2.2668-17.117 3.3295-26.81z" stroke-width="1.1284"/>
   <path id="path4155-2-3" d="m294.59 958.83c-5.236 0-10.28-0.76865-15.275-2.2578-4.9478-1.4891-8.7923-3.2664-11.482-5.332l4.03-12.78c5.9566 3.939 12.299 5.9102 18.928 5.9102 6.7732 0 11.529-2.2111 14.219-6.7266 2.6901-4.5155 4.0352-10.952 4.0352-19.311v-3.5547c-6.6772 0-12.874-0.86441-18.734-2.5938-5.8125-1.7294-10.954-4.2753-15.373-7.5898-9.7996-7.4458-14.699-17.917-14.699-31.512 0-9.6555 2.642-17.535 7.8301-23.588 5.0927-5.9886 11.439-9.0061 18.986-9.1152v15.354c-1.7155 0.8438-3.3198 2.1486-4.8144 3.9473-2.8342 3.4106-4.2754 8.5021-4.2754 15.275 0 5.8605 1.1047 10.568 3.3144 14.219 2.2097 3.6508 4.996 6.341 8.3106 8.0703s6.6288 2.8337 9.9434 3.4102c3.3146 0.52841 6.6288 0.81641 9.9434 0.81641v-23.201c0-2.8342-0.14419-4.9476-0.48047-6.3887-0.96072-5.5243-2.978-9.801-6.1484-12.779-1.7806-1.6997-3.7178-2.8963-5.793-3.6348v-13.215c1.1784 0.49354 2.3277 1.0761 3.4394 1.7676 3.939 2.4499 7.1572 5.9087 9.7031 10.328h0.7207l1.2012-12.059h16.572c-0.48036 3.3146-0.81673 6.9649-0.96094 11-0.14408 4.0351-0.24023 9.0325-0.24023 15.037h0.0488v49.525c0 13.306-2.6902 23.442-8.0703 30.455-5.3802 7.0134-13.69 10.521-24.883 10.521z" stroke-width="1.1284"/>
   <path id="path4155-1-7-5" d="m374.89 959.08c-5.236 0-10.28-0.76865-15.275-2.2578-4.9478-1.4891-8.7923-3.2664-11.482-5.332l4.0352-12.779c5.9566 3.939 12.299 5.9102 18.928 5.9102 6.7732 0 11.529-2.2111 14.219-6.7266 2.6901-4.5155 4.0352-10.952 4.0352-19.311v-3.5547c-6.6772 0-12.874-0.86441-18.734-2.5938-5.8125-1.7294-10.954-4.2753-15.373-7.5898-9.7996-7.4458-14.699-17.917-14.699-31.512 0-9.6555 2.642-17.535 7.8301-23.588 5.0927-5.9886 11.439-9.0061 18.986-9.1152v15.354c-1.7155 0.8438-3.3198 2.1486-4.8144 3.9473-2.8342 3.4106-4.2754 8.5021-4.2754 15.275 0 5.8605 1.1047 10.568 3.3144 14.219 2.2097 3.6508 4.996 6.341 8.3106 8.0703s6.6288 2.8337 9.9434 3.4102c3.3146 0.52841 6.6288 0.81641 9.9434 0.81641v-23.201c0-2.8342-0.14419-4.9476-0.48047-6.3887-0.96072-5.5243-2.978-9.801-6.1484-12.779-1.7806-1.6997-3.7178-2.8963-5.793-3.6348v-13.215c1.1784 0.49354 2.3277 1.0761 3.4394 1.7676 3.939 2.4499 7.1572 5.9087 9.7031 10.328h0.7207l1.2012-12.059h16.572c-0.48036 3.3146-0.81673 6.9649-0.96094 11-0.14408 4.0351-0.24023 9.0325-0.24023 15.037h0.0488v49.525c0 13.306-2.6902 23.442-8.0703 30.455-5.3802 7.0134-13.69 10.521-24.883 10.521z" stroke-width="1.1284"/>
   <path id="path78" d="m389.51-241.23c-9.6963 0.35557-23.207 11.734-23.207 11.734-27.841 22.926-39.457 50.922-44.498 71.25-40.583-100.88-96.734-82.315-122.39-75.004-27.439 7.8108-31.982 4.3516-31.982 4.3516 31.573 102.83 100.83 106.94 134.37 102.27l-168.43 97.379v1.3516l-2.6914 1.5566 0.10352 189.72-166.71-96.369-182.54 105.25c18.564-19.866 68.016-87.343-14.312-175.84 0 0 0.72402 5.6642-19.76 25.521-19.158 18.561-63.313 57.905 3.7617 143.49-20.125-5.7978-50.178-9.7356-83.953 2.9121 0 0-16.61 6.011-21.766 14.23-2.7008 4.3054-2.2601 9.2175 5.3574 14.188 22.163 14.454 10.744 1.9916 45.568-11.461 32.183-12.432 68.158-1.8005 73.492-0.0977v0.97852l-0.51953 0.29883-0.13086 222.45 158.43 91.594-153.54 88.764v1.3574l-2.9766 1.7207 0.12891 218.24c-8.2702 2.4795-41.483 11.11-71.785-0.5957-34.824-13.453-23.406-25.915-45.568-11.461-7.6176 4.97-8.0602 9.8821-5.3594 14.188 5.1561 8.2194 21.768 14.23 21.768 14.23 33.775 12.648 63.828 8.7098 83.953 2.9121-67.075 85.587-22.92 124.93-3.7617 143.49 20.484 19.857 19.76 25.521 19.76 25.521 77.951-83.791 37.777-148.71 17.525-172.24l179.8 103.67 161.22-93.201-0.10351 190.53 172.98 100.01c-34.254-4.1955-101.47 1.779-132.41 102.55 0 0 4.5436-3.4592 31.982 4.3516 25.653 7.3115 81.804 25.878 122.39-75.004 5.0414 20.328 16.657 48.324 44.498 71.25 0 0 13.511 11.379 23.207 11.734 5.079 0.1862 9.112-2.6524 9.6074-11.734 1.4363-26.42-3.6465-10.3-32.709-33.732-25.959-20.93-34.956-55.439-36.611-62.684l190.07-109.59 0.1113-185.51 161.33 93.016 187.87-108.61c8.1462 8.061 29.053 31.206 33.68 60.826 5.7619 36.885-10.74 33.227 12.859 45.193 8.113 4.112 12.587 2.0386 14.965-2.4531 4.5402-8.575 1.4414-25.965 1.4414-25.965-5.9342-35.574-24.372-59.632-39.455-74.162 107.66 15.295 119.65-42.614 126.15-68.486 6.9551-27.668 12.223-29.875 12.223-29.875-108.97-25.021-145.95 38.559-157.16 68.826l-0.1192-199.1-0.9121-0.52539v-6.7637l-160.69-92.656 163.79-94.443 0.123-208.26c9.4016 28.26 44.712 98.856 158.54 72.719 0 0-5.2676-2.2049-12.223-29.873-6.4947-25.872-18.491-83.783-126.15-68.488 15.084-14.53 33.521-38.586 39.455-74.16 0 0 3.0988-17.392-1.4414-25.967-2.3782-4.4917-6.8519-6.5651-14.965-2.4531-23.599 11.966-7.0975 8.3082-12.859 45.193-5.2454 33.578-31.607 59.049-36.356 63.408l-192.33-111.19-159.94 92.217-0.1016-179.11-0.916-0.52734v-7.0938l-187.7-108.22c3.316-12.017 13.037-40.009 35.426-58.061 29.062-23.433 34.145-7.312 32.709-33.732-0.49538-9.082-4.5284-11.921-9.6074-11.734zm-226.82 458.37 164.44 94.812 157.53-91.072-0.1075 186.26 161.83 93.557-156.94 90.729v1.0234l-2.9766 1.7207 0.1075 185.46-163.01-94.24-163.34 94.182-0.10351-183.04-0.62696-0.36133-0.004-7.0938-157-90.523 160.1-92.307 0.10742-189.11z" stroke-width="1.128"/>
   <path id="path4951" d="m206.33-212.28c58.84 16.836 71.321 35.269 82.972 48.138 27.217 29.37-33.63 3.0268-44.156-2.1429-10.525-5.1696-63.968-58.69-38.817-45.995z" stroke-width="1px"/>
   <path id="path4951-8" d="m999.59 754.29c-44 42.539-66.204 44.131-83.175 47.787-39.044 8.8862 14.194-30.638 23.934-37.169 9.7397-6.5303 82.811-26.053 59.241-10.618z" stroke-width="1px"/>
   <path id="path4951-8-4" d="m-235.11 957.24c-14.839-59.375-5.116-79.4 0.20273-95.925 11.826-38.256 19.437 27.611 20.222 39.311 0.78557 11.7-18.843 84.743-20.425 56.614z" stroke-width="1px"/>
   <path id="path4951-8-7" d="m-238.2 38.074c-14.839 59.375-5.116 79.4 0.20273 95.925 11.826 38.256 19.436-27.611 20.222-39.311 0.78558-11.7-18.843-84.743-20.425-56.614z" stroke-width="1px"/>
   <path id="path4951-8-70" d="m204.13 1216.1c58.84-16.836 71.321-35.269 82.972-48.138 27.217-29.37-33.63-3.0268-44.156 2.1428-10.525 5.1697-63.968 58.69-38.817 45.995z" stroke-width="1px"/>
   <path id="path4951-8-8" d="m1003.2 243.04c-44-42.539-66.204-44.131-83.175-47.787-39.044-8.8862 14.194 30.638 23.934 37.169 9.7397 6.5303 82.812 26.053 59.241 10.618z" stroke-width="1px"/>
  </g>
 </g>
</svg>
