<svg xmlns="http://www.w3.org/2000/svg" fill="none" viewBox="0 0 65 65" preserveAspectRatio="xMidYMid meet" version="1.2" baseProfile="tiny-ps" xml:space="preserve"><title>Isaac Science logo</title><path d="M0 0h65v65H0z" fill="#fff"/><path d="M30.62 13.907C26.221.362 19.544 2.561 16.612 3.406c-2.996.845-3.458.462-3.458.462C17.727 18.72 29.632 14.37 29.632 14.37s-6.534-.382-10.247-6.852z" fill="#4e9934"/><path d="M32.548 14.019c.08-.51.08-6.311 5.227-10.582 0 0 3.347-2.821 3.538 0s-.382 1.084-3.506 3.617-3.984 6.964-3.984 6.964z" fill="#100c08"/><g fill="#4e9934"><use href="#B"/><use href="#B"/></g><path d="M17.679 31.373c.032.765-.43 1.275-1.195 1.275-.621 0-1.116-.51-1.116-1.275s.51-1.275 1.163-1.275c.653-.016 1.147.51 1.147 1.275zm-2.12 15.474V34.561h1.944v12.287zm3.714-2.024c.43.271 1.195.622 1.992.622 1.116 0 1.817-.685 1.817-1.769 0-.956-.319-1.578-1.578-2.39-1.61-1.036-2.47-2.072-2.47-3.506 0-1.992 1.498-3.426 3.378-3.426.972 0 1.689.319 2.199.622l-.542 1.498c-.43-.303-.972-.542-1.625-.542-1.068 0-1.61.765-1.61 1.546 0 .845.303 1.307 1.53 2.151 1.418.924 2.55 2.008 2.55 3.761 0 2.47-1.657 3.649-3.665 3.649-.924 0-1.896-.271-2.454-.701zm12.271 2.024l-.111-1.307h-.08c-.542.956-1.386 1.498-2.422 1.498-1.657 0-2.916-1.386-2.916-3.506 0-3.108 2.47-4.462 5.227-4.494v-.383c0-1.657-.414-2.805-1.96-2.805-.765 0-1.434.271-2.008.622l-.43-1.355c.51-.383 1.657-.781 2.884-.781 2.47 0 3.538 1.626 3.538 4.398v5.307l.112 2.805zm-.271-6.374c-1.004 0-3.378.191-3.378 2.853 0 1.609.781 2.199 1.53 2.199.877 0 1.61-.621 1.849-1.849.048-.239.048-.462.048-.685v-2.518zm8.86 6.374l-.112-1.307h-.08c-.542.956-1.386 1.498-2.422 1.498-1.657 0-2.916-1.386-2.916-3.506 0-3.108 2.47-4.462 5.227-4.494v-.383c0-1.657-.414-2.805-1.96-2.805-.765 0-1.434.271-2.008.622l-.43-1.355c.51-.383 1.657-.781 2.884-.781 2.47 0 3.538 1.626 3.538 4.398v5.307l.112 2.805h-1.769c-.064-.032-.064 0-.064 0zm-.271-6.374c-1.004 0-3.378.191-3.378 2.853 0 1.609.781 2.199 1.53 2.199.876 0 1.609-.621 1.849-1.849.048-.239.048-.462.048-.685v-2.518zm10.04 6.072c-.43.271-1.163.43-2.008.43-2.693 0-4.51-2.183-4.51-6.231 0-3.538 1.769-6.422 4.861-6.422.653 0 1.355.191 1.721.383l-.382 1.609c-.271-.111-.765-.319-1.386-.319-1.96 0-2.852 2.343-2.852 4.765 0 2.884 1.084 4.59 2.916 4.59.542 0 .972-.112 1.418-.319z" fill="#fff"/><defs><path id="B" d="M53.169 50.863L32.532 62.815 11.831 50.863v-23.84L32.5 15.071l20.669 11.92z"/></defs></svg>