<svg xmlns="http://www.w3.org/2000/svg" height="500" width="500"><path d="M0 0h500v500H0z" fill="#ffffff"/><g transform="matrix(.878049 0 0 .878049 30.487805 30.487805)"><path d="M250.131 488.709L45.137 369.488 45 130.764 249.869 11.291l204.984 119.231.147 238.714z"/><path d="M282.853 331.148c8.59 0 15.542-7.004 15.542-15.668 0-8.643-6.952-15.647-15.542-15.647-8.58 0-15.51 7.004-15.51 15.647 0 8.664 6.931 15.668 15.51 15.668zm62.115 0c8.58 0 15.521-7.004 15.521-15.668 0-8.643-6.941-15.647-15.521-15.647s-15.531 7.004-15.531 15.647c0 8.664 6.952 15.668 15.542 15.668zm62.136-31.325c-8.59 0-15.542 7.015-15.542 15.657 0 8.664 6.952 15.668 15.542 15.668 8.548 0 15.5-7.004 15.5-15.668 0-8.643-6.952-15.647-15.5-15.647zM158.623 235.44H96.498c-8.559 0-15.521 7.015-15.521 15.657 0 8.653 6.962 15.657 15.521 15.657h62.125c8.569 0 15.521-7.004 15.521-15.647 0-8.653-6.952-15.668-15.521-15.668zm186.345 0h-62.125c-8.59 0-15.521 7.015-15.521 15.657 0 8.653 6.931 15.657 15.521 15.657h62.125c8.559 0 15.51-7.004 15.51-15.647 0-8.653-6.952-15.668-15.51-15.668zm-124.23 0c-8.58 0-15.542 7.015-15.542 15.657 0 8.653 6.962 15.657 15.542 15.657s15.542-7.004 15.542-15.647c0-8.653-6.962-15.668-15.542-15.668zm186.345 0c-8.58 0-15.521 7.015-15.521 15.657 0 8.653 6.931 15.657 15.521 15.657 8.569 0 15.521-7.004 15.521-15.647 0-8.653-6.952-15.668-15.521-15.668zm-62.126-64.394c-8.569 0-15.51 7.015-15.51 15.647 0 8.664 6.931 15.678 15.51 15.678 8.59 0 15.531-7.015 15.531-15.678 0-8.632-6.941-15.647-15.531-15.647zm62.126 0c-8.58 0-15.531 7.015-15.531 15.647 0 8.664 6.952 15.678 15.542 15.678 8.559 0 15.51-7.015 15.51-15.678 0-8.632-6.952-15.647-15.51-15.647z" fill="#ffffff"/></g></svg>