<?xml version="1.0" encoding="utf-8"?>
<svg width="500" height="500" version="1.2" baseProfile="tiny-ps" xmlns="http://www.w3.org/2000/svg">
  <title>Isaac Physics</title>
  <path fill="#4e9934" d="M236.452 123.089c-31.963-98.323-80.314-82.261-101.893-76.095s-24.986 3.407-24.986 3.407c33.423 107.734 119.74 76.42 119.74 76.42s-47.377-2.758-74.473-49.811z" />
  <path fill="#100c08" d="M250.406 123.901c.649-3.732.649-45.754 37.966-76.744 0 0 24.337-20.443 25.635 0s-2.758 7.95-25.473 26.284-28.88 50.46-28.88 50.46z" />
  <path d="M250.081 477.93L100 391.288V218.33l149.757-86.641L400 218.005v173.283z" fill="#4e9934" />
  <path fill="#fff" d="M142.509 249.806c.162 5.516-3.083 9.248-8.761 9.248-4.543 0-8.112-3.732-8.112-9.248s3.732-9.248 8.437-9.248c4.867 0 8.437 3.732 8.437 9.248zm-15.414 112.277v-89.237h14.278v89.237zm27.096-14.602c3.083 1.947 8.761 4.543 14.44 4.543 8.112 0 13.142-4.867 13.142-12.818 0-6.977-2.434-11.52-11.52-17.361-11.682-7.463-18.01-14.927-18.01-25.473 0-14.44 10.871-24.824 24.5-24.824 7.139 0 12.169 2.434 16.063 4.543l-3.894 10.871c-3.083-2.109-7.139-3.894-11.844-3.894-7.626 0-11.682 5.516-11.682 11.195 0 6.165 2.109 9.41 11.033 15.576 10.222 6.652 18.496 14.602 18.496 27.258 0 18.01-12.006 26.447-26.609 26.447-6.652 0-13.791-1.947-17.523-5.192zm88.751 14.602l-.811-9.41h-.649c-3.894 6.977-10.059 10.871-17.685 10.871-12.006 0-21.092-10.059-21.092-25.473 0-22.553 18.01-32.288 37.966-32.612V302.7c0-12.006-2.92-20.281-14.278-20.281-5.516 0-10.384 1.947-14.602 4.543l-3.083-9.897c3.732-2.758 12.006-5.679 20.93-5.679 18.01 0 25.635 11.844 25.635 31.963v38.453c0 6.977 0 14.602.811 20.281zm-1.785-46.079c-7.301 0-24.5 1.46-24.5 20.768 0 11.682 5.679 16.063 11.033 16.063 6.328 0 11.682-4.543 13.467-13.467.324-1.785.324-3.407.324-4.867v-18.334h-.324zm64.251 46.079l-.811-9.41h-.487c-3.894 6.977-10.059 10.871-17.685 10.871-12.006 0-21.092-10.059-21.092-25.473 0-22.553 18.01-32.288 37.966-32.612V302.7c0-12.006-2.92-20.281-14.278-20.281-5.516 0-10.384 1.947-14.602 4.543l-3.083-9.897c3.732-2.758 12.006-5.679 20.93-5.679 18.01 0 25.635 11.844 25.635 31.963v38.453c0 6.977 0 14.602.811 20.281zm-1.947-46.079c-7.301 0-24.5 1.46-24.5 20.768 0 11.682 5.679 16.063 11.033 16.063 6.328 0 11.682-4.543 13.467-13.467.324-1.785.324-3.407.324-4.867v-18.334h-.324zm72.85 43.97c-3.083 1.947-8.437 3.083-14.602 3.083-19.47 0-32.774-15.738-32.774-45.268 0-25.635 12.818-46.566 35.37-46.566 4.705 0 9.897 1.46 12.493 2.758l-2.758 11.682c-1.947-.811-5.516-2.434-10.059-2.434-14.278 0-20.768 17.036-20.768 34.559 0 20.93 7.95 33.423 21.092 33.423 3.894 0 7.139-.811 10.222-2.434z" />
</svg>